<?xml version="1.0" encoding="UTF-8" standalone="no"?>
<!-- Created with Inkscape (http://www.inkscape.org/) -->

<svg
   xmlns:osb="http://www.openswatchbook.org/uri/2009/osb"
   xmlns:dc="http://purl.org/dc/elements/1.1/"
   xmlns:cc="http://creativecommons.org/ns#"
   xmlns:rdf="http://www.w3.org/1999/02/22-rdf-syntax-ns#"
   xmlns:svg="http://www.w3.org/2000/svg"
   xmlns="http://www.w3.org/2000/svg"
   xmlns:sodipodi="http://sodipodi.sourceforge.net/DTD/sodipodi-0.dtd"
   xmlns:inkscape="http://www.inkscape.org/namespaces/inkscape"
   width="744.09448819"
   height="1052.3622047"
   id="svg2"
   version="1.1"
   inkscape:version="0.48.4 r9939"
   sodipodi:docname="fishes.svg">
  <defs
     id="defs4">
    <inkscape:perspective
       sodipodi:type="inkscape:persp3d"
       inkscape:vp_x="46.189658 : 305.11417 : 1"
       inkscape:vp_y="0 : 910.37754 : 0"
       inkscape:vp_z="653.76398 : 1009.802 : 1"
       inkscape:persp3d-origin="349.97682 : 497.7836 : 1"
       id="perspective6059" />
    <inkscape:perspective
       sodipodi:type="inkscape:persp3d"
       inkscape:vp_x="46.189658 : 511.13111 : 1"
       inkscape:vp_y="0 : 910.37754 : 0"
       inkscape:vp_z="653.76398 : 511.13111 : 1"
       inkscape:persp3d-origin="349.97682 : 351.45663 : 1"
       id="perspective6029" />
    <linearGradient
       inkscape:collect="always"
       id="linearGradient5476"
       osb:paint="gradient">
      <stop
         style="stop-color:#000000;stop-opacity:1;"
         offset="0"
         id="stop5478" />
      <stop
         style="stop-color:#000000;stop-opacity:0;"
         offset="1"
         id="stop5480" />
    </linearGradient>
    <linearGradient
       inkscape:collect="always"
       id="linearGradient5468"
       osb:paint="gradient">
      <stop
         style="stop-color:#000000;stop-opacity:1;"
         offset="0"
         id="stop5470" />
      <stop
         style="stop-color:#000000;stop-opacity:0;"
         offset="1"
         id="stop5472" />
    </linearGradient>
    <linearGradient
       inkscape:collect="always"
       id="linearGradient5460"
       osb:paint="gradient">
      <stop
         style="stop-color:#000000;stop-opacity:1;"
         offset="0"
         id="stop5462" />
      <stop
         style="stop-color:#000000;stop-opacity:0;"
         offset="1"
         id="stop5464" />
    </linearGradient>
    <linearGradient
       inkscape:collect="always"
       id="linearGradient5452"
       osb:paint="gradient">
      <stop
         style="stop-color:#000000;stop-opacity:1;"
         offset="0"
         id="stop5454" />
      <stop
         style="stop-color:#000000;stop-opacity:0;"
         offset="1"
         id="stop5456" />
    </linearGradient>
    <linearGradient
       inkscape:collect="always"
       id="linearGradient5444"
       osb:paint="gradient">
      <stop
         style="stop-color:#000000;stop-opacity:1;"
         offset="0"
         id="stop5446" />
      <stop
         style="stop-color:#000000;stop-opacity:0;"
         offset="1"
         id="stop5448" />
    </linearGradient>
    <linearGradient
       inkscape:collect="always"
       id="linearGradient5436"
       osb:paint="gradient">
      <stop
         style="stop-color:#000000;stop-opacity:1;"
         offset="0"
         id="stop5438" />
      <stop
         style="stop-color:#000000;stop-opacity:0;"
         offset="1"
         id="stop5440" />
    </linearGradient>
  </defs>
  <sodipodi:namedview
     id="base"
     pagecolor="#ffffff"
     bordercolor="#666666"
     borderopacity="1.0"
     inkscape:pageopacity="0.0"
     inkscape:pageshadow="2"
     inkscape:zoom="1.1032886"
     inkscape:cx="249.44329"
     inkscape:cy="349.27597"
     inkscape:document-units="px"
     inkscape:current-layer="layer3"
     showgrid="false"
     inkscape:window-width="1680"
     inkscape:window-height="1026"
     inkscape:window-x="0"
     inkscape:window-y="24"
     inkscape:window-maximized="1" />
  <metadata
     id="metadata7">
    <rdf:RDF>
      <cc:Work
         rdf:about="">
        <dc:format>image/svg+xml</dc:format>
        <dc:type
           rdf:resource="http://purl.org/dc/dcmitype/StillImage" />
        <dc:title></dc:title>
      </cc:Work>
    </rdf:RDF>
  </metadata>
  <g
     inkscape:groupmode="layer"
     id="layer2"
     inkscape:label="Layer"
     style="display:inline" />
  <g
     inkscape:label="Layer 1"
     inkscape:groupmode="layer"
     id="layer1"
     style="display:inline" />
  <g
     inkscape:groupmode="layer"
     id="layer3"
     inkscape:label="Layer#1">
    <g
       id="g3826"
       inkscape:export-filename="/home/christian/coding/Java/LudumDare31/src/assets/fish_1.png"
       inkscape:export-xdpi="49.690536"
       inkscape:export-ydpi="49.690536"
       transform="matrix(1.1837043,0,0,1.1057256,-11.350793,-4.8284479)">
      <g
         id="g5799">
        <path
           style="opacity:0.78600823;fill:#a80000;fill-opacity:1;stroke:#000000;stroke-width:1px;stroke-linecap:butt;stroke-linejoin:miter;stroke-opacity:1;display:inline"
           d="m 142.93659,125.04214 c 41.92133,16.16245 41.92133,16.16245 41.92133,16.16245 l -7.57615,-39.39595 15.15229,-32.324885 -48.9924,14.647212"
           id="path3765"
           inkscape:connector-curvature="0" />
        <path
           sodipodi:type="arc"
           style="fill:#ff0000;fill-rule:evenodd;stroke:#000000;stroke-width:1px;stroke-linecap:butt;stroke-linejoin:miter;stroke-opacity:1;display:inline"
           id="path2985"
           sodipodi:cx="136.42857"
           sodipodi:cy="74.505043"
           sodipodi:rx="72.14286"
           sodipodi:ry="30.714285"
           d="m 208.57143,74.505043 c 0,16.963031 -32.29945,30.714287 -72.14286,30.714287 -39.843398,0 -72.142857,-13.751256 -72.142857,-30.714287 0,-16.963031 32.299459,-30.714285 72.142857,-30.714285 39.84341,0 72.14286,13.751254 72.14286,30.714285 z"
           transform="matrix(0.7250524,0,0,0.81769794,15.539887,44.045446)" />
        <path
           sodipodi:type="arc"
           style="fill:#000000;fill-opacity:1;display:inline"
           id="path3759"
           sodipodi:cx="99.285713"
           sodipodi:cy="180.21933"
           sodipodi:rx="9.2857141"
           sodipodi:ry="6.4285712"
           d="m 108.57143,180.21933 c 0,3.5504 -4.15736,6.42857 -9.285717,6.42857 -5.128358,0 -9.285714,-2.87817 -9.285714,-6.42857 0,-3.5504 4.157356,-6.42857 9.285714,-6.42857 5.128357,0 9.285717,2.87817 9.285717,6.42857 z"
           transform="matrix(0.4806178,0,0,0.74992709,35.402483,-40.622308)" />
        <path
           style="fill:none;stroke:#000000;stroke-width:1.99287748;stroke-linecap:butt;stroke-linejoin:miter;stroke-miterlimit:4;stroke-opacity:1;stroke-dasharray:none;display:inline"
           d="m 62.882265,109.33894 18.001873,2.8444"
           id="path3772"
           inkscape:connector-curvature="0" />
        <path
           style="fill:none;stroke:#000000;stroke-width:1.36547172;stroke-linecap:round;stroke-linejoin:round;stroke-miterlimit:0.80000001;stroke-opacity:1;stroke-dasharray:none;stroke-dashoffset:0;display:inline"
           d="m 93.825436,85.281406 2.848513,8.098069 -0.28485,11.081575 -3.987923,11.50777 -6.266734,5.11457"
           id="path3777"
           inkscape:connector-curvature="0"
           sodipodi:nodetypes="ccccc" />
        <path
           style="fill:none;stroke:#000000;stroke-width:1px;stroke-linecap:butt;stroke-linejoin:miter;stroke-opacity:1"
           d="m 106.10236,106.62728 37.20473,11.02362 -5.0525,-11.02362 0,0"
           id="path3803"
           inkscape:connector-curvature="0"
           sodipodi:nodetypes="cccc" />
      </g>
    </g>
    <g
       id="g3896"
       transform="matrix(1.0284589,0,0,1.1057256,16.276751,-4.8284479)"
       inkscape:export-filename="/home/christian/coding/Java/LudumDare31/src/assets/fish_4.png"
       inkscape:export-xdpi="55.464737"
       inkscape:export-ydpi="55.464737">
      <path
         inkscape:connector-curvature="0"
         id="path3765-3"
         d="m 140.88511,222.45656 c 31.03586,16.19372 31.03586,16.19372 31.03586,16.19372 l -5.6089,-39.47216 11.21779,-32.38741 -36.27083,14.67554"
         style="opacity:0.65843626;fill:#68eb17;fill-opacity:1;stroke:#000000;stroke-width:0.86125952px;stroke-linecap:butt;stroke-linejoin:miter;stroke-opacity:1;display:inline" />
      <path
         transform="matrix(0.42875671,0,0,0.98356499,61.775848,129.22624)"
         d="m 208.57143,74.505043 c 0,16.963031 -32.29945,30.714287 -72.14286,30.714287 -39.843398,0 -72.142857,-13.751256 -72.142857,-30.714287 0,-16.963031 32.299459,-30.714285 72.142857,-30.714285 39.84341,0 72.14286,13.751254 72.14286,30.714285 z"
         sodipodi:ry="30.714285"
         sodipodi:rx="72.14286"
         sodipodi:cy="74.505043"
         sodipodi:cx="136.42857"
         id="path2985-8"
         style="fill:#68eb17;fill-opacity:1;fill-rule:evenodd;stroke:#000000;stroke-width:1px;stroke-linecap:butt;stroke-linejoin:miter;stroke-opacity:1;display:inline"
         sodipodi:type="arc" />
      <path
         transform="matrix(0.21829018,0,0,0.74992709,80.089702,53.830934)"
         d="m 108.57143,180.21933 c 0,3.5504 -4.15736,6.42857 -9.285717,6.42857 -5.128358,0 -9.285714,-2.87817 -9.285714,-6.42857 0,-3.5504 4.157356,-6.42857 9.285714,-6.42857 5.128357,0 9.285717,2.87817 9.285717,6.42857 z"
         sodipodi:ry="6.4285712"
         sodipodi:rx="9.2857141"
         sodipodi:cy="180.21933"
         sodipodi:cx="99.285713"
         id="path3759-8"
         style="fill:#000000;fill-opacity:1;display:inline"
         sodipodi:type="arc" />
      <path
         sodipodi:nodetypes="cc"
         inkscape:connector-curvature="0"
         id="path3772-0"
         d="m 89.9152,206.49952 10.02155,5.28031"
         style="fill:none;stroke:#000000;stroke-width:2.21096683;stroke-linecap:butt;stroke-linejoin:miter;stroke-miterlimit:4;stroke-opacity:1;stroke-dasharray:none;display:inline" />
      <path
         sodipodi:nodetypes="ccccc"
         inkscape:connector-curvature="0"
         id="path3777-1"
         d="m 113.84703,181.52172 0.77225,8.69804 -0.30688,11.90259 -4.29639,12.36037 -5.83282,7.86888"
         style="fill:none;stroke:#000000;stroke-width:1.46886337;stroke-linecap:round;stroke-linejoin:round;stroke-miterlimit:0.80000001;stroke-opacity:1;stroke-dasharray:none;stroke-dashoffset:0;display:inline" />
      <path
         sodipodi:nodetypes="cccc"
         inkscape:connector-curvature="0"
         id="path3803-5"
         d="m 120.27604,201.64655 21.13248,13.46421 -2.86985,-13.46421 0,0"
         style="fill:none;stroke:#000000;stroke-width:0.83292204px;stroke-linecap:butt;stroke-linejoin:miter;stroke-opacity:1" />
    </g>
    <g
       id="g5484"
       transform="matrix(-0.86715961,0,0,1.6302356,623.52136,-61.579822)"
       inkscape:export-filename="/home/christian/coding/Java/LudumDare31/src/assets/fish_2.png"
       inkscape:export-xdpi="47.441082"
       inkscape:export-ydpi="47.441082">
      <path
         inkscape:connector-curvature="0"
         id="path3765-34"
         d="m 344.27087,121.73463 c 41.92133,16.16245 41.92133,16.16245 41.92133,16.16245 l -7.57615,-39.395954 15.15229,-32.324885 -48.9924,14.647212"
         style="opacity:0.78600823;fill:#3b808b;fill-opacity:1;stroke:#000000;stroke-width:1px;stroke-linecap:butt;stroke-linejoin:miter;stroke-opacity:1;display:inline" />
      <path
         transform="matrix(0.7250524,0,0,0.81769794,216.87417,40.737932)"
         d="m 208.57143,74.505043 c 0,16.963031 -32.29945,30.714287 -72.14286,30.714287 -39.843398,0 -72.142857,-13.751256 -72.142857,-30.714287 0,-16.963031 32.299459,-30.714285 72.142857,-30.714285 39.84341,0 72.14286,13.751254 72.14286,30.714285 z"
         sodipodi:ry="30.714285"
         sodipodi:rx="72.14286"
         sodipodi:cy="74.505043"
         sodipodi:cx="136.42857"
         id="path2985-9"
         style="fill:#3b808b;fill-opacity:1;fill-rule:evenodd;stroke:#000000;stroke-width:1px;stroke-linecap:butt;stroke-linejoin:miter;stroke-opacity:1;display:inline"
         sodipodi:type="arc" />
      <path
         transform="matrix(0.4806178,0,0,0.74992709,236.73676,-43.929822)"
         d="m 108.57143,180.21933 c 0,3.5504 -4.15736,6.42857 -9.285717,6.42857 -5.128358,0 -9.285714,-2.87817 -9.285714,-6.42857 0,-3.5504 4.157356,-6.42857 9.285714,-6.42857 5.128357,0 9.285717,2.87817 9.285717,6.42857 z"
         sodipodi:ry="6.4285712"
         sodipodi:rx="9.2857141"
         sodipodi:cy="180.21933"
         sodipodi:cx="99.285713"
         id="path3759-2"
         style="fill:#000000;fill-opacity:1;stroke:#000000;stroke-opacity:1;display:inline"
         sodipodi:type="arc" />
      <path
         inkscape:connector-curvature="0"
         id="path3772-6"
         d="m 264.21654,106.03143 18.00188,2.8444"
         style="fill:#68eb17;fill-opacity:1;stroke:#000000;stroke-width:1.99287748;stroke-linecap:butt;stroke-linejoin:miter;stroke-miterlimit:4;stroke-opacity:1;stroke-dasharray:none;display:inline" />
      <path
         sodipodi:nodetypes="ccccc"
         inkscape:connector-curvature="0"
         id="path3777-2"
         d="m 295.15972,81.973892 2.84851,8.098069 -0.28485,11.081579 -3.98792,11.50777 -6.26674,5.11457"
         style="fill:#3b808b;fill-opacity:1;stroke:#000000;stroke-width:1.36547172;stroke-linecap:round;stroke-linejoin:round;stroke-miterlimit:0.80000001;stroke-opacity:1;stroke-dasharray:none;stroke-dashoffset:0;display:inline" />
      <path
         sodipodi:nodetypes="cccc"
         inkscape:connector-curvature="0"
         id="path3803-7"
         d="m 307.43664,103.31977 37.20473,11.02362 -5.0525,-11.02362 0,0"
         style="fill:#3b808b;fill-opacity:1;stroke:#000000;stroke-width:1px;stroke-linecap:butt;stroke-linejoin:miter;stroke-opacity:1" />
    </g>
    <g
       id="g5542"
       transform="matrix(1.1837043,0,0,1.4193839,-11.350793,-62.00268)"
       inkscape:export-filename="/home/christian/coding/Java/LudumDare31/src/assets/fish_5.png"
       inkscape:export-xdpi="64.515701"
       inkscape:export-ydpi="64.515701">
      <path
         inkscape:connector-curvature="0"
         id="path3765-34-4"
         d="m 275.14659,212.23792 c -41.67144,8.60864 -41.67144,8.60864 -41.67144,8.60864 l 7.53099,-20.98356 -15.06196,-17.21729 48.70036,7.80158"
         style="opacity:0.78600823;fill:#b09521;fill-opacity:1;stroke:#000000;stroke-width:0.7276383px;stroke-linecap:butt;stroke-linejoin:miter;stroke-opacity:1;display:inline" />
      <path
         transform="matrix(-0.72073041,0,0,0.43553247,401.78389,169.09644)"
         d="m 208.57143,74.505043 c 0,16.963031 -32.29945,30.714287 -72.14286,30.714287 -39.843398,0 -72.142857,-13.751256 -72.142857,-30.714287 0,-16.963031 32.299459,-30.714285 72.142857,-30.714285 39.84341,0 72.14286,13.751254 72.14286,30.714285 z"
         sodipodi:ry="30.714285"
         sodipodi:rx="72.14286"
         sodipodi:cy="74.505043"
         sodipodi:cx="136.42857"
         id="path2985-9-4"
         style="fill:#b09521;fill-opacity:1;fill-rule:evenodd;stroke:#000000;stroke-width:1px;stroke-linecap:butt;stroke-linejoin:miter;stroke-opacity:1;display:inline"
         sodipodi:type="arc" />
      <path
         transform="matrix(-0.47775287,0,0,0.39943551,382.0397,123.99965)"
         d="m 108.57143,180.21933 c 0,3.5504 -4.15736,6.42857 -9.285717,6.42857 -5.128358,0 -9.285714,-2.87817 -9.285714,-6.42857 0,-3.5504 4.157356,-6.42857 9.285714,-6.42857 5.128357,0 9.285717,2.87817 9.285717,6.42857 z"
         sodipodi:ry="6.4285712"
         sodipodi:rx="9.2857141"
         sodipodi:cy="180.21933"
         sodipodi:cx="99.285713"
         id="path3759-2-6"
         style="fill:#000000;fill-opacity:1;stroke:#000000;stroke-opacity:1;display:inline"
         sodipodi:type="arc" />
      <path
         inkscape:connector-curvature="0"
         id="path3772-6-0"
         d="m 354.72373,203.87388 -17.89458,1.51502"
         style="fill:#b09521;fill-opacity:1;stroke:#000000;stroke-width:1.45009398;stroke-linecap:butt;stroke-linejoin:miter;stroke-miterlimit:4;stroke-opacity:1;stroke-dasharray:none;display:inline" />
      <path
         sodipodi:nodetypes="ccccc"
         inkscape:connector-curvature="0"
         id="path3777-2-4"
         d="m 323.965,191.06006 -2.83153,4.31329 0.28315,5.90241 3.96415,6.12941 6.22938,2.72419"
         style="fill:#b09521;fill-opacity:1;stroke:#000000;stroke-width:0.99356949;stroke-linecap:round;stroke-linejoin:round;stroke-miterlimit:0.80000001;stroke-opacity:1;stroke-dasharray:none;stroke-dashoffset:0;display:inline" />
      <path
         sodipodi:nodetypes="cccc"
         inkscape:connector-curvature="0"
         id="path3803-7-9"
         d="m 311.76126,202.42956 -36.98296,5.87154 5.02239,-5.87154 0,0"
         style="fill:#b09521;fill-opacity:1;stroke:#000000;stroke-width:0.7276383px;stroke-linecap:butt;stroke-linejoin:miter;stroke-opacity:1" />
    </g>
    <g
       id="g5592"
       inkscape:export-filename="/home/christian/coding/Java/LudumDare31/src/assets/fish_3.png"
       inkscape:export-xdpi="53.756409"
       inkscape:export-ydpi="53.756409"
       transform="matrix(1.1837043,0,0,1.1057256,-11.350793,-4.8284479)">
      <path
         inkscape:connector-curvature="0"
         id="path3765-34-4-5"
         d="m 454.07869,133.89643 c -39.42536,16.81415 -39.42536,16.81415 -39.42536,16.81415 l 7.12507,-40.98446 -14.25012,-33.628313 46.07542,15.237816"
         style="opacity:0.78600823;fill:#717b70;fill-opacity:1;stroke:#000000;stroke-width:0.98913187px;stroke-linecap:butt;stroke-linejoin:miter;stroke-opacity:1;display:inline" />
      <path
         transform="matrix(-0.39746576,0,0,0.81843844,512.62731,53.676182)"
         d="m 208.57143,74.505043 c 0,16.963031 -32.29945,30.714287 -72.14286,30.714287 -39.843398,0 -72.142857,-13.751256 -72.142857,-30.714287 0,-16.963031 32.299459,-30.714285 72.142857,-30.714285 39.84341,0 72.14286,13.751254 72.14286,30.714285 z"
         sodipodi:ry="30.714285"
         sodipodi:rx="72.14286"
         sodipodi:cy="74.505043"
         sodipodi:cx="136.42857"
         id="path2985-9-4-1"
         style="fill:#717b70;fill-opacity:1;fill-rule:evenodd;stroke:#000000;stroke-width:1px;stroke-linecap:butt;stroke-linejoin:miter;stroke-opacity:1;display:inline"
         sodipodi:type="arc" />
      <path
         transform="matrix(-0.2634694,0,0,0.75060621,500.43971,-27.170798)"
         d="m 108.57143,180.21933 c 0,3.5504 -4.15736,6.42857 -9.285717,6.42857 -5.128358,0 -9.285714,-2.87817 -9.285714,-6.42857 0,-3.5504 4.157356,-6.42857 9.285714,-6.42857 5.128357,0 9.285717,2.87817 9.285717,6.42857 z"
         sodipodi:ry="6.4285712"
         sodipodi:rx="9.2857141"
         sodipodi:cy="180.21933"
         sodipodi:cx="99.285713"
         id="path3759-2-6-6"
         style="fill:#000000;fill-opacity:1;stroke:#000000;stroke-opacity:1;display:inline"
         sodipodi:type="arc" />
      <path
         inkscape:connector-curvature="0"
         id="path3772-6-0-6"
         d="m 486.67475,119.02881 -9.86844,2.84698"
         style="fill:#717b70;fill-opacity:1;stroke:#000000;stroke-width:1.47619033;stroke-linecap:butt;stroke-linejoin:miter;stroke-miterlimit:4;stroke-opacity:1;stroke-dasharray:none;display:inline" />
      <path
         sodipodi:nodetypes="ccccc"
         inkscape:connector-curvature="0"
         id="path3777-2-4-6"
         d="m 466.45827,96.388669 -2.71473,7.601281 0.27144,10.40175 3.80067,10.8018 5.97249,4.80082"
         style="fill:#717b70;fill-opacity:1;stroke:#000000;stroke-width:1.29149222;stroke-linecap:round;stroke-linejoin:round;stroke-miterlimit:0.80000001;stroke-opacity:1;stroke-dasharray:none;stroke-dashoffset:0;display:inline" />
      <path
         sodipodi:nodetypes="cccc"
         inkscape:connector-curvature="0"
         id="path3803-7-9-9"
         d="m 459.32721,116.97797 -18.52165,9.80961 2.51529,-9.80961 0,0"
         style="fill:#717b70;fill-opacity:1;stroke:#000000;stroke-width:0.66558641px;stroke-linecap:butt;stroke-linejoin:miter;stroke-opacity:1" />
    </g>
    <g
       id="g5642"
       transform="matrix(1.1837043,0,0,0.86357699,-9.8129869,36.228495)"
       inkscape:export-filename="/home/christian/coding/Java/LudumDare31/src/assets/fish_6.png"
       inkscape:export-xdpi="48.056572"
       inkscape:export-ydpi="48.056572">
      <path
         inkscape:connector-curvature="0"
         id="path3765-34-3"
         d="m 456.40827,246.05297 c 30.71078,23.82924 30.71078,23.82924 30.71078,23.82924 l -5.55014,-58.08375 11.10028,-47.65846 -35.89091,21.59524"
         style="opacity:0.78600823;fill:#b05d19;fill-opacity:1;stroke:#000000;stroke-width:1.03927243px;stroke-linecap:butt;stroke-linejoin:miter;stroke-opacity:1;display:inline" />
      <path
         transform="matrix(0.53115983,0,0,1.2055797,363.07983,126.63482)"
         d="m 208.57143,74.505043 c 0,16.963031 -32.29945,30.714287 -72.14286,30.714287 -39.843398,0 -72.142857,-13.751256 -72.142857,-30.714287 0,-16.963031 32.299459,-30.714285 72.142857,-30.714285 39.84341,0 72.14286,13.751254 72.14286,30.714285 z"
         sodipodi:ry="30.714285"
         sodipodi:rx="72.14286"
         sodipodi:cy="74.505043"
         sodipodi:cx="136.42857"
         id="path2985-9-2"
         style="fill:#b05d19;fill-opacity:1;fill-rule:evenodd;stroke:#000000;stroke-width:1px;stroke-linecap:butt;stroke-linejoin:miter;stroke-opacity:1;display:inline"
         sodipodi:type="arc" />
      <path
         transform="matrix(0.35209161,0,0,1.1056612,377.63079,1.8042257)"
         d="m 108.57143,180.21933 c 0,3.5504 -4.15736,6.42857 -9.285717,6.42857 -5.128358,0 -9.285714,-2.87817 -9.285714,-6.42857 0,-3.5504 4.157356,-6.42857 9.285714,-6.42857 5.128357,0 9.285717,2.87817 9.285717,6.42857 z"
         sodipodi:ry="6.4285712"
         sodipodi:rx="9.2857141"
         sodipodi:cy="180.21933"
         sodipodi:cx="99.285713"
         id="path3759-2-2"
         style="fill:#000000;fill-opacity:1;stroke:#000000;stroke-opacity:1;display:inline"
         sodipodi:type="arc" />
      <path
         inkscape:connector-curvature="0"
         id="path3772-6-3"
         d="m 397.76197,222.90083 13.18784,4.19366"
         style="fill:#b05d19;fill-opacity:1;stroke:#000000;stroke-width:2.07114267;stroke-linecap:butt;stroke-linejoin:miter;stroke-miterlimit:4;stroke-opacity:1;stroke-dasharray:none;display:inline" />
      <path
         sodipodi:nodetypes="ccccc"
         inkscape:connector-curvature="0"
         id="path3777-2-46"
         d="m 420.43036,187.4314 2.08677,11.93945 -0.20868,16.33822 -2.92147,16.96658 -4.5909,7.5407"
         style="fill:#b05d19;fill-opacity:1;stroke:#000000;stroke-width:1.41909719;stroke-linecap:round;stroke-linejoin:round;stroke-miterlimit:0.80000001;stroke-opacity:1;stroke-dasharray:none;stroke-dashoffset:0;display:inline" />
      <path
         sodipodi:nodetypes="cccc"
         inkscape:connector-curvature="0"
         id="path3803-7-2"
         d="m 429.4242,218.90287 27.25549,16.25276 -3.70136,-16.25276 0,0"
         style="fill:#b05d19;fill-opacity:1;stroke:#000000;stroke-width:1.03927243px;stroke-linecap:butt;stroke-linejoin:miter;stroke-opacity:1" />
    </g>
    <g
       id="g6573">
      <path
         transform="matrix(1.5566084,0,0,1.1669889,-98.652623,41.984113)"
         d="m 148.12992,394.50458 a 11.827428,9.9901571 0 1 1 -23.65486,0 11.827428,9.9901571 0 1 1 23.65486,0 z"
         sodipodi:ry="9.9901571"
         sodipodi:rx="11.827428"
         sodipodi:cy="394.50458"
         sodipodi:cx="136.30249"
         id="path5746"
         style="fill:#f77800;fill-opacity:1;stroke:#000000;stroke-width:0.74195395;stroke-linecap:round;stroke-linejoin:round;stroke-miterlimit:0.80000001;stroke-opacity:1;stroke-dasharray:none;stroke-dashoffset:0;display:inline"
         sodipodi:type="arc" />
      <path
         transform="matrix(1.5566084,0,0,1.1669889,-53.59031,41.984106)"
         d="m 148.12992,394.50458 a 11.827428,9.9901571 0 1 1 -23.65486,0 11.827428,9.9901571 0 1 1 23.65486,0 z"
         sodipodi:ry="9.9901571"
         sodipodi:rx="11.827428"
         sodipodi:cy="394.50458"
         sodipodi:cx="136.30249"
         id="path5746-2"
         style="fill:#f77800;fill-opacity:1;stroke:#000000;stroke-width:0.74195395;stroke-linecap:round;stroke-linejoin:round;stroke-miterlimit:0.80000001;stroke-opacity:1;stroke-dasharray:none;stroke-dashoffset:0;display:inline"
         sodipodi:type="arc" />
      <path
         transform="matrix(1.5269587,0,0,1.4930593,-112.70565,-86.411801)"
         d="m 186.42749,309.57529 a 21.435915,20.461554 0 1 1 -42.87183,0 21.435915,20.461554 0 1 1 42.87183,0 z"
         sodipodi:ry="20.461554"
         sodipodi:rx="21.435915"
         sodipodi:cy="309.57529"
         sodipodi:cx="164.99158"
         id="path5664"
         style="fill:#000000;fill-opacity:1;stroke:#000000;stroke-width:1.79999995;stroke-linecap:round;stroke-linejoin:round;stroke-miterlimit:0.80000001;stroke-opacity:1;stroke-dasharray:none;stroke-dashoffset:0;display:inline"
         sodipodi:type="arc" />
      <path
         transform="matrix(2.8730936,0,0,2.3574621,-126.26012,-343.13055)"
         d="m 100.36089,352.24734 a 8.7270336,6.5452757 0 1 1 -17.454066,0 8.7270336,6.5452757 0 1 1 17.454066,0 z"
         sodipodi:ry="6.5452757"
         sodipodi:rx="8.7270336"
         sodipodi:cy="352.24734"
         sodipodi:cx="91.633858"
         id="path5748"
         style="fill:#000000;fill-opacity:1;stroke:#000000;stroke-width:0;stroke-linecap:round;stroke-linejoin:round;stroke-miterlimit:0.80000001;stroke-opacity:1;stroke-dasharray:none;stroke-dashoffset:0;display:inline"
         sodipodi:type="arc" />
      <path
         transform="matrix(1.2125845,0,0,1.4970725,-50.437418,-81.026869)"
         d="m 185.77792,349.84882 a 30.205153,36.051311 0 1 1 -60.4103,0 30.205153,36.051311 0 1 1 60.4103,0 z"
         sodipodi:ry="36.051311"
         sodipodi:rx="30.205153"
         sodipodi:cy="349.84882"
         sodipodi:cx="155.57277"
         id="path5652"
         style="fill:#000000;fill-opacity:1;stroke:#000000;stroke-width:1.79999995;stroke-linecap:round;stroke-linejoin:round;stroke-miterlimit:0.80000001;stroke-opacity:1;stroke-dasharray:none;stroke-dashoffset:0"
         sodipodi:type="arc" />
      <path
         transform="matrix(1.0457116,0,0,1.7378616,-28.552114,-174.79039)"
         d="m 179.93177,353.09668 a 20.461555,24.358994 0 1 1 -40.92311,0 20.461555,24.358994 0 1 1 40.92311,0 z"
         sodipodi:ry="24.358994"
         sodipodi:rx="20.461555"
         sodipodi:cy="353.09668"
         sodipodi:cx="159.47021"
         id="path5662"
         style="fill:#ffffff;fill-opacity:1;stroke:#000000;stroke-width:1.79999995;stroke-linecap:round;stroke-linejoin:round;stroke-miterlimit:0.80000001;stroke-opacity:1;stroke-dasharray:none;stroke-dashoffset:0"
         sodipodi:type="arc" />
      <path
         transform="matrix(2.328712,0,0,3.0526996,-376.62888,-582.15583)"
         d="m 220.2053,310.22485 a 3.5726523,2.9230793 0 1 1 -7.14531,0 3.5726523,2.9230793 0 1 1 7.14531,0 z"
         sodipodi:ry="2.9230793"
         sodipodi:rx="3.5726523"
         sodipodi:cy="310.22485"
         sodipodi:cx="216.63264"
         id="path5666"
         style="fill:#ffffff;fill-opacity:1;stroke:#000000;stroke-width:0;stroke-linecap:round;stroke-linejoin:round;stroke-miterlimit:0.80000001;stroke-opacity:1;stroke-dasharray:none;stroke-dashoffset:0"
         sodipodi:type="arc" />
      <path
         transform="matrix(2.328712,0,0,3.0526996,-354.63077,-581.82685)"
         d="m 220.2053,310.22485 a 3.5726523,2.9230793 0 1 1 -7.14531,0 3.5726523,2.9230793 0 1 1 7.14531,0 z"
         sodipodi:ry="2.9230793"
         sodipodi:rx="3.5726523"
         sodipodi:cy="310.22485"
         sodipodi:cx="216.63264"
         id="path5666-9"
         style="fill:#ffffff;fill-opacity:1;stroke:#000000;stroke-width:0;stroke-linecap:round;stroke-linejoin:round;stroke-miterlimit:0.80000001;stroke-opacity:1;stroke-dasharray:none;stroke-dashoffset:0"
         sodipodi:type="arc" />
      <path
         transform="matrix(1.5269587,0,0,1.4930593,-100.57285,-83.051784)"
         d="m 165.12468,310.44946 a 9.1863518,3.3300524 0 1 1 -18.37271,0 9.1863518,3.3300524 0 1 1 18.37271,0 z"
         sodipodi:ry="3.3300524"
         sodipodi:rx="9.1863518"
         sodipodi:cy="310.44946"
         sodipodi:cx="155.93832"
         id="path5686"
         style="fill:#f77800;fill-opacity:1;stroke:#000000;stroke-width:0;stroke-linecap:round;stroke-linejoin:round;stroke-miterlimit:0.80000001;stroke-opacity:1;stroke-dasharray:none;stroke-dashoffset:0"
         sodipodi:type="arc" />
      <path
         transform="matrix(2.5958298,0,0,3.7784257,-424.14483,-714.76344)"
         d="m 213.81234,286.10562 a 1.148294,1.2631234 0 1 1 -2.29659,0 1.148294,1.2631234 0 1 1 2.29659,0 z"
         sodipodi:ry="1.2631234"
         sodipodi:rx="1.148294"
         sodipodi:cy="286.10562"
         sodipodi:cx="212.66405"
         id="path5688"
         style="fill:#000000;fill-opacity:1;stroke:#000000;stroke-width:0;stroke-linecap:round;stroke-linejoin:round;stroke-miterlimit:0.80000001;stroke-opacity:1;stroke-dasharray:none;stroke-dashoffset:0"
         sodipodi:type="arc" />
      <path
         transform="matrix(2.5958298,0,0,3.7784257,-401.97888,-714.99064)"
         d="m 213.81234,286.10562 a 1.148294,1.2631234 0 1 1 -2.29659,0 1.148294,1.2631234 0 1 1 2.29659,0 z"
         sodipodi:ry="1.2631234"
         sodipodi:rx="1.148294"
         sodipodi:cy="286.10562"
         sodipodi:cx="212.66405"
         id="path5688-1"
         style="fill:#000000;fill-opacity:1;stroke:#000000;stroke-width:0;stroke-linecap:round;stroke-linejoin:round;stroke-miterlimit:0.80000001;stroke-opacity:1;stroke-dasharray:none;stroke-dashoffset:0"
         sodipodi:type="arc" />
      <path
         inkscape:transform-center-y="0.12811347"
         inkscape:transform-center-x="1.0588007"
         transform="matrix(0.36334645,-2.2533787,-1.018959,-2.2524941,482.01151,1454.0054)"
         d="m 119.88189,337.08987 a 9.1863518,15.042651 0 1 1 -18.37271,0 9.1863518,15.042651 0 1 1 18.37271,0 z"
         sodipodi:ry="15.042651"
         sodipodi:rx="9.1863518"
         sodipodi:cy="337.08987"
         sodipodi:cx="110.69553"
         id="path5708-0"
         style="fill:#000000;fill-opacity:1;stroke:#000000;stroke-width:0;stroke-linecap:round;stroke-linejoin:round;stroke-miterlimit:0.80000001;stroke-opacity:1;stroke-dasharray:none;stroke-dashoffset:0"
         sodipodi:type="arc" />
      <path
         inkscape:transform-center-y="-0.12811841"
         inkscape:transform-center-x="1.0588007"
         transform="matrix(0.36334645,2.2533787,-1.018959,2.2524941,400.7629,-563.18584)"
         d="m 119.88189,337.08987 a 9.1863518,15.042651 0 1 1 -18.37271,0 9.1863518,15.042651 0 1 1 18.37271,0 z"
         sodipodi:ry="15.042651"
         sodipodi:rx="9.1863518"
         sodipodi:cy="337.08987"
         sodipodi:cx="110.69553"
         id="path5708-0-3"
         style="fill:#000000;fill-opacity:1;stroke:#000000;stroke-width:0;stroke-linecap:round;stroke-linejoin:round;stroke-miterlimit:0.80000001;stroke-opacity:1;stroke-dasharray:none;stroke-dashoffset:0"
         sodipodi:type="arc" />
    </g>
    <g
       id="g6545">
      <path
         transform="matrix(1.5566084,0,0,1.1669889,77.265147,46.910738)"
         d="m 148.12992,394.50458 a 11.827428,9.9901571 0 1 1 -23.65486,0 11.827428,9.9901571 0 1 1 23.65486,0 z"
         sodipodi:ry="9.9901571"
         sodipodi:rx="11.827428"
         sodipodi:cy="394.50458"
         sodipodi:cx="136.30249"
         id="path5746-7"
         style="fill:#f77800;fill-opacity:1;stroke:#000000;stroke-width:0.74195395;stroke-linecap:round;stroke-linejoin:round;stroke-miterlimit:0.80000001;stroke-opacity:1;stroke-dasharray:none;stroke-dashoffset:0;display:inline"
         sodipodi:type="arc" />
      <path
         transform="matrix(1.5566084,0,0,1.1669889,122.32746,46.910731)"
         d="m 148.12992,394.50458 a 11.827428,9.9901571 0 1 1 -23.65486,0 11.827428,9.9901571 0 1 1 23.65486,0 z"
         sodipodi:ry="9.9901571"
         sodipodi:rx="11.827428"
         sodipodi:cy="394.50458"
         sodipodi:cx="136.30249"
         id="path5746-2-1"
         style="fill:#f77800;fill-opacity:1;stroke:#000000;stroke-width:0.74195395;stroke-linecap:round;stroke-linejoin:round;stroke-miterlimit:0.80000001;stroke-opacity:1;stroke-dasharray:none;stroke-dashoffset:0;display:inline"
         sodipodi:type="arc" />
      <path
         transform="matrix(1.5269587,0,0,1.4930593,63.21212,-81.485176)"
         d="m 186.42749,309.57529 a 21.435915,20.461554 0 1 1 -42.87183,0 21.435915,20.461554 0 1 1 42.87183,0 z"
         sodipodi:ry="20.461554"
         sodipodi:rx="21.435915"
         sodipodi:cy="309.57529"
         sodipodi:cx="164.99158"
         id="path5664-3"
         style="fill:#000000;fill-opacity:1;stroke:#000000;stroke-width:1.79999995;stroke-linecap:round;stroke-linejoin:round;stroke-miterlimit:0.80000001;stroke-opacity:1;stroke-dasharray:none;stroke-dashoffset:0;display:inline"
         sodipodi:type="arc" />
      <path
         transform="matrix(2.8730936,0,0,2.3574621,49.657647,-338.20392)"
         d="m 100.36089,352.24734 a 8.7270336,6.5452757 0 1 1 -17.454066,0 8.7270336,6.5452757 0 1 1 17.454066,0 z"
         sodipodi:ry="6.5452757"
         sodipodi:rx="8.7270336"
         sodipodi:cy="352.24734"
         sodipodi:cx="91.633858"
         id="path5748-3"
         style="fill:#000000;fill-opacity:1;stroke:#000000;stroke-width:0;stroke-linecap:round;stroke-linejoin:round;stroke-miterlimit:0.80000001;stroke-opacity:1;stroke-dasharray:none;stroke-dashoffset:0;display:inline"
         sodipodi:type="arc" />
      <path
         transform="matrix(1.2125845,0,0,1.4970725,125.48035,-76.100244)"
         d="m 185.77792,349.84882 a 30.205153,36.051311 0 1 1 -60.4103,0 30.205153,36.051311 0 1 1 60.4103,0 z"
         sodipodi:ry="36.051311"
         sodipodi:rx="30.205153"
         sodipodi:cy="349.84882"
         sodipodi:cx="155.57277"
         id="path5652-9"
         style="fill:#000000;fill-opacity:1;stroke:#000000;stroke-width:1.79999995;stroke-linecap:round;stroke-linejoin:round;stroke-miterlimit:0.80000001;stroke-opacity:1;stroke-dasharray:none;stroke-dashoffset:0"
         sodipodi:type="arc" />
      <path
         transform="matrix(1.0457116,0,0,1.7378616,147.36566,-169.86376)"
         d="m 179.93177,353.09668 a 20.461555,24.358994 0 1 1 -40.92311,0 20.461555,24.358994 0 1 1 40.92311,0 z"
         sodipodi:ry="24.358994"
         sodipodi:rx="20.461555"
         sodipodi:cy="353.09668"
         sodipodi:cx="159.47021"
         id="path5662-5"
         style="fill:#ffffff;fill-opacity:1;stroke:#000000;stroke-width:1.79999995;stroke-linecap:round;stroke-linejoin:round;stroke-miterlimit:0.80000001;stroke-opacity:1;stroke-dasharray:none;stroke-dashoffset:0"
         sodipodi:type="arc" />
      <path
         transform="matrix(1.5269587,0,0,1.4930593,75.344921,-78.125159)"
         d="m 165.12468,310.44946 a 9.1863518,3.3300524 0 1 1 -18.37271,0 9.1863518,3.3300524 0 1 1 18.37271,0 z"
         sodipodi:ry="3.3300524"
         sodipodi:rx="9.1863518"
         sodipodi:cy="310.44946"
         sodipodi:cx="155.93832"
         id="path5686-1"
         style="fill:#f77800;fill-opacity:1;stroke:#000000;stroke-width:0;stroke-linecap:round;stroke-linejoin:round;stroke-miterlimit:0.80000001;stroke-opacity:1;stroke-dasharray:none;stroke-dashoffset:0"
         sodipodi:type="arc" />
      <path
         inkscape:transform-center-y="-0.12811347"
         inkscape:transform-center-x="-1.0588006"
         transform="matrix(-0.36334645,2.2533787,1.018959,2.2524941,-27.839194,-606.25922)"
         d="m 119.88189,337.08987 a 9.1863518,15.042651 0 1 1 -18.37271,0 9.1863518,15.042651 0 1 1 18.37271,0 z"
         sodipodi:ry="15.042651"
         sodipodi:rx="9.1863518"
         sodipodi:cy="337.08987"
         sodipodi:cx="110.69553"
         id="path5708-0-0"
         style="fill:#000000;fill-opacity:1;stroke:#000000;stroke-width:0;stroke-linecap:round;stroke-linejoin:round;stroke-miterlimit:0.80000001;stroke-opacity:1;stroke-dasharray:none;stroke-dashoffset:0"
         sodipodi:type="arc" />
      <path
         inkscape:transform-center-y="0.12811841"
         inkscape:transform-center-x="-1.0588006"
         transform="matrix(-0.36334645,-2.2533787,1.018959,-2.2524941,53.409416,1410.932)"
         d="m 119.88189,337.08987 a 9.1863518,15.042651 0 1 1 -18.37271,0 9.1863518,15.042651 0 1 1 18.37271,0 z"
         sodipodi:ry="15.042651"
         sodipodi:rx="9.1863518"
         sodipodi:cy="337.08987"
         sodipodi:cx="110.69553"
         id="path5708-0-3-2"
         style="fill:#000000;fill-opacity:1;stroke:#000000;stroke-width:0;stroke-linecap:round;stroke-linejoin:round;stroke-miterlimit:0.80000001;stroke-opacity:1;stroke-dasharray:none;stroke-dashoffset:0"
         sodipodi:type="arc" />
      <path
         sodipodi:nodetypes="ccccc"
         inkscape:connector-curvature="0"
         id="path5877"
         d="m 297.11803,370.20812 1.96798,-1.25905 4.73764,-1.31135 4.45895,0 1.98595,1.8899"
         style="fill:none;stroke:#ffffff;stroke-width:2.35807896;stroke-linecap:butt;stroke-linejoin:miter;stroke-miterlimit:4;stroke-opacity:1;stroke-dasharray:none" />
      <path
         sodipodi:nodetypes="ccccc"
         inkscape:connector-curvature="0"
         id="path5877-9"
         d="m 329.13416,370.55364 -2.48024,-1.71225 -4.73764,-1.31134 -4.45894,0 -1.53277,0.98351"
         style="fill:none;stroke:#ffffff;stroke-width:2.35807896;stroke-linecap:butt;stroke-linejoin:miter;stroke-miterlimit:4;stroke-opacity:1;stroke-dasharray:none" />
    </g>
    <g
       id="g6527">
      <path
         transform="matrix(1.5566084,0,0,1.1669889,278.51034,41.783472)"
         d="m 148.12992,394.50458 a 11.827428,9.9901571 0 1 1 -23.65486,0 11.827428,9.9901571 0 1 1 23.65486,0 z"
         sodipodi:ry="9.9901571"
         sodipodi:rx="11.827428"
         sodipodi:cy="394.50458"
         sodipodi:cx="136.30249"
         id="path5746-8"
         style="fill:#f77800;fill-opacity:1;stroke:#000000;stroke-width:0.74195395;stroke-linecap:round;stroke-linejoin:round;stroke-miterlimit:0.80000001;stroke-opacity:1;stroke-dasharray:none;stroke-dashoffset:0;display:inline"
         sodipodi:type="arc" />
      <path
         transform="matrix(1.5566084,0,0,1.1669889,323.57265,41.783465)"
         d="m 148.12992,394.50458 a 11.827428,9.9901571 0 1 1 -23.65486,0 11.827428,9.9901571 0 1 1 23.65486,0 z"
         sodipodi:ry="9.9901571"
         sodipodi:rx="11.827428"
         sodipodi:cy="394.50458"
         sodipodi:cx="136.30249"
         id="path5746-2-3"
         style="fill:#f77800;fill-opacity:1;stroke:#000000;stroke-width:0.74195395;stroke-linecap:round;stroke-linejoin:round;stroke-miterlimit:0.80000001;stroke-opacity:1;stroke-dasharray:none;stroke-dashoffset:0;display:inline"
         sodipodi:type="arc" />
      <path
         transform="matrix(1.5269587,0,0,1.4930593,264.45731,-86.612442)"
         d="m 186.42749,309.57529 a 21.435915,20.461554 0 1 1 -42.87183,0 21.435915,20.461554 0 1 1 42.87183,0 z"
         sodipodi:ry="20.461554"
         sodipodi:rx="21.435915"
         sodipodi:cy="309.57529"
         sodipodi:cx="164.99158"
         id="path5664-1"
         style="fill:#000000;fill-opacity:1;stroke:#000000;stroke-width:1.79999995;stroke-linecap:round;stroke-linejoin:round;stroke-miterlimit:0.80000001;stroke-opacity:1;stroke-dasharray:none;stroke-dashoffset:0;display:inline"
         sodipodi:type="arc" />
      <path
         transform="matrix(2.8730936,0,0,2.3574621,250.90284,-343.33119)"
         d="m 100.36089,352.24734 a 8.7270336,6.5452757 0 1 1 -17.454066,0 8.7270336,6.5452757 0 1 1 17.454066,0 z"
         sodipodi:ry="6.5452757"
         sodipodi:rx="8.7270336"
         sodipodi:cy="352.24734"
         sodipodi:cx="91.633858"
         id="path5748-0"
         style="fill:#000000;fill-opacity:1;stroke:#000000;stroke-width:0;stroke-linecap:round;stroke-linejoin:round;stroke-miterlimit:0.80000001;stroke-opacity:1;stroke-dasharray:none;stroke-dashoffset:0;display:inline"
         sodipodi:type="arc" />
      <path
         transform="matrix(1.2125845,0,0,1.4970725,326.72554,-81.22751)"
         d="m 185.77792,349.84882 a 30.205153,36.051311 0 1 1 -60.4103,0 30.205153,36.051311 0 1 1 60.4103,0 z"
         sodipodi:ry="36.051311"
         sodipodi:rx="30.205153"
         sodipodi:cy="349.84882"
         sodipodi:cx="155.57277"
         id="path5652-6"
         style="fill:#000000;fill-opacity:1;stroke:#000000;stroke-width:1.79999995;stroke-linecap:round;stroke-linejoin:round;stroke-miterlimit:0.80000001;stroke-opacity:1;stroke-dasharray:none;stroke-dashoffset:0"
         sodipodi:type="arc" />
      <path
         transform="matrix(1.0457116,0,0,1.7378616,348.61085,-174.99103)"
         d="m 179.93177,353.09668 a 20.461555,24.358994 0 1 1 -40.92311,0 20.461555,24.358994 0 1 1 40.92311,0 z"
         sodipodi:ry="24.358994"
         sodipodi:rx="20.461555"
         sodipodi:cy="353.09668"
         sodipodi:cx="159.47021"
         id="path5662-8"
         style="fill:#ffffff;fill-opacity:1;stroke:#000000;stroke-width:1.79999995;stroke-linecap:round;stroke-linejoin:round;stroke-miterlimit:0.80000001;stroke-opacity:1;stroke-dasharray:none;stroke-dashoffset:0"
         sodipodi:type="arc" />
      <path
         transform="matrix(2.328712,0,0,3.0526996,0.53408009,-576.35647)"
         d="m 220.2053,310.22485 a 3.5726523,2.9230793 0 1 1 -7.14531,0 3.5726523,2.9230793 0 1 1 7.14531,0 z"
         sodipodi:ry="2.9230793"
         sodipodi:rx="3.5726523"
         sodipodi:cy="310.22485"
         sodipodi:cx="216.63264"
         id="path5666-8"
         style="fill:#ffffff;fill-opacity:1;stroke:#000000;stroke-width:0;stroke-linecap:round;stroke-linejoin:round;stroke-miterlimit:0.80000001;stroke-opacity:1;stroke-dasharray:none;stroke-dashoffset:0"
         sodipodi:type="arc" />
      <path
         transform="matrix(2.328712,0,0,3.0526996,22.532195,-576.02749)"
         d="m 220.2053,310.22485 a 3.5726523,2.9230793 0 1 1 -7.14531,0 3.5726523,2.9230793 0 1 1 7.14531,0 z"
         sodipodi:ry="2.9230793"
         sodipodi:rx="3.5726523"
         sodipodi:cy="310.22485"
         sodipodi:cx="216.63264"
         id="path5666-9-0"
         style="fill:#ffffff;fill-opacity:1;stroke:#000000;stroke-width:0;stroke-linecap:round;stroke-linejoin:round;stroke-miterlimit:0.80000001;stroke-opacity:1;stroke-dasharray:none;stroke-dashoffset:0"
         sodipodi:type="arc" />
      <path
         transform="matrix(1.5269587,0,0,1.4930593,276.59011,-77.252425)"
         d="m 165.12468,310.44946 a 9.1863518,3.3300524 0 1 1 -18.37271,0 9.1863518,3.3300524 0 1 1 18.37271,0 z"
         sodipodi:ry="3.3300524"
         sodipodi:rx="9.1863518"
         sodipodi:cy="310.44946"
         sodipodi:cx="155.93832"
         id="path5686-3"
         style="fill:#f77800;fill-opacity:1;stroke:#000000;stroke-width:0;stroke-linecap:round;stroke-linejoin:round;stroke-miterlimit:0.80000001;stroke-opacity:1;stroke-dasharray:none;stroke-dashoffset:0"
         sodipodi:type="arc" />
      <path
         transform="matrix(2.5958298,0,0,3.7784257,-46.981867,-708.96409)"
         d="m 213.81234,286.10562 a 1.148294,1.2631234 0 1 1 -2.29659,0 1.148294,1.2631234 0 1 1 2.29659,0 z"
         sodipodi:ry="1.2631234"
         sodipodi:rx="1.148294"
         sodipodi:cy="286.10562"
         sodipodi:cx="212.66405"
         id="path5688-2"
         style="fill:#000000;fill-opacity:1;stroke:#000000;stroke-width:0;stroke-linecap:round;stroke-linejoin:round;stroke-miterlimit:0.80000001;stroke-opacity:1;stroke-dasharray:none;stroke-dashoffset:0"
         sodipodi:type="arc" />
      <path
         transform="matrix(2.5958298,0,0,3.7784257,-24.815923,-709.19128)"
         d="m 213.81234,286.10562 a 1.148294,1.2631234 0 1 1 -2.29659,0 1.148294,1.2631234 0 1 1 2.29659,0 z"
         sodipodi:ry="1.2631234"
         sodipodi:rx="1.148294"
         sodipodi:cy="286.10562"
         sodipodi:cx="212.66405"
         id="path5688-1-9"
         style="fill:#000000;fill-opacity:1;stroke:#000000;stroke-width:0;stroke-linecap:round;stroke-linejoin:round;stroke-miterlimit:0.80000001;stroke-opacity:1;stroke-dasharray:none;stroke-dashoffset:0"
         sodipodi:type="arc" />
      <path
         inkscape:transform-center-y="0.12811347"
         inkscape:transform-center-x="1.0588007"
         transform="matrix(0.36334645,-2.2533787,-1.018959,-2.2524941,859.17447,1453.8048)"
         d="m 119.88189,337.08987 a 9.1863518,15.042651 0 1 1 -18.37271,0 9.1863518,15.042651 0 1 1 18.37271,0 z"
         sodipodi:ry="15.042651"
         sodipodi:rx="9.1863518"
         sodipodi:cy="337.08987"
         sodipodi:cx="110.69553"
         id="path5708-0-6"
         style="fill:#000000;fill-opacity:1;stroke:#000000;stroke-width:0;stroke-linecap:round;stroke-linejoin:round;stroke-miterlimit:0.80000001;stroke-opacity:1;stroke-dasharray:none;stroke-dashoffset:0"
         sodipodi:type="arc" />
      <path
         inkscape:transform-center-y="-0.12811841"
         inkscape:transform-center-x="1.0588007"
         transform="matrix(0.36334645,2.2533787,-1.018959,2.2524941,777.92586,-563.38648)"
         d="m 119.88189,337.08987 a 9.1863518,15.042651 0 1 1 -18.37271,0 9.1863518,15.042651 0 1 1 18.37271,0 z"
         sodipodi:ry="15.042651"
         sodipodi:rx="9.1863518"
         sodipodi:cy="337.08987"
         sodipodi:cx="110.69553"
         id="path5708-0-3-4"
         style="fill:#000000;fill-opacity:1;stroke:#000000;stroke-width:0;stroke-linecap:round;stroke-linejoin:round;stroke-miterlimit:0.80000001;stroke-opacity:1;stroke-dasharray:none;stroke-dashoffset:0"
         sodipodi:type="arc" />
      <g
         transform="matrix(0.30669161,0,0,0.22029766,415.75658,323.69874)"
         id="g6005">
        <path
           sodipodi:type="arc"
           style="fill:#46ffff;fill-opacity:1;stroke:#56ffff;stroke-width:2.5;stroke-linecap:round;stroke-linejoin:round;stroke-miterlimit:4;stroke-opacity:1;stroke-dasharray:none;stroke-dashoffset:0"
           id="path6001"
           sodipodi:cx="369.80408"
           sodipodi:cy="284.23364"
           sodipodi:rx="5.1272659"
           sodipodi:ry="8.0113535"
           d="m 374.93134,284.23364 c 0,4.42455 -2.29555,8.01136 -5.12726,8.01136 -2.83171,0 -5.12727,-3.58681 -5.12727,-8.01136 0,-4.42455 2.29556,-8.01135 5.12727,-8.01135 2.83171,0 5.12726,3.5868 5.12726,8.01135 z"
           transform="matrix(2.6483033,0,0,3.894914,-598.3334,-796.87517)" />
        <path
           style="fill:#46ffff;fill-opacity:1;stroke:#46ffff;stroke-width:0.96347499px;stroke-linecap:butt;stroke-linejoin:miter;stroke-opacity:1"
           d="m 369.30512,285.20855 7.13278,-14.11294 4.75519,-20.52791 6.53839,22.45241 7.72717,17.32042 0,0"
           id="path6003"
           inkscape:connector-curvature="0" />
      </g>
    </g>
    <path
       style="fill:#ffffff;fill-opacity:1;stroke:#000000;stroke-width:0.90638113;stroke-linecap:round;stroke-linejoin:round;stroke-miterlimit:4;stroke-opacity:1;stroke-dasharray:none;stroke-dashoffset:0"
       d=""
       id="path6089"
       inkscape:connector-curvature="0" />
    <path
       style="fill:#ffffff;fill-opacity:1;stroke:#ffffff;stroke-width:0.32045412;stroke-linecap:round;stroke-linejoin:round;stroke-miterlimit:4;stroke-opacity:1;stroke-dasharray:none;stroke-dashoffset:0"
       d=""
       id="path6091"
       inkscape:connector-curvature="0" />
    <path
       style="fill:#ffffff;fill-opacity:1;stroke:#ffffff;stroke-width:0.32045412;stroke-linecap:round;stroke-linejoin:round;stroke-miterlimit:4;stroke-opacity:1;stroke-dasharray:none;stroke-dashoffset:0"
       d=""
       id="path6095"
       inkscape:connector-curvature="0" />
    <path
       style="fill:#ffffff;fill-opacity:1;stroke:#ffffff;stroke-width:0.32045412;stroke-linecap:round;stroke-linejoin:round;stroke-miterlimit:4;stroke-opacity:1;stroke-dasharray:none;stroke-dashoffset:0"
       d=""
       id="path6097"
       inkscape:connector-curvature="0" />
    <path
       style="fill:#ffffff;fill-opacity:1;stroke:#ffffff;stroke-width:0.32045412;stroke-linecap:round;stroke-linejoin:round;stroke-miterlimit:4;stroke-opacity:1;stroke-dasharray:none;stroke-dashoffset:0"
       d=""
       id="path6111"
       inkscape:connector-curvature="0" />
    <path
       style="fill:#ffffff;fill-opacity:1;stroke:#ffffff;stroke-width:0.32045412;stroke-linecap:round;stroke-linejoin:round;stroke-miterlimit:4;stroke-opacity:1;stroke-dasharray:none;stroke-dashoffset:0"
       d=""
       id="path6113"
       inkscape:connector-curvature="0" />
    <path
       style="fill:#ffffff;fill-opacity:1;stroke:#ffffff;stroke-width:0.32045412;stroke-linecap:round;stroke-linejoin:round;stroke-miterlimit:4;stroke-opacity:1;stroke-dasharray:none;stroke-dashoffset:0"
       d=""
       id="path6115"
       inkscape:connector-curvature="0" />
    <g
       id="g6230"
       inkscape:export-filename="/home/christian/coding/Java/LudumDare31/src/assets/bad_1.png"
       inkscape:export-xdpi="64"
       inkscape:export-ydpi="64">
      <path
         inkscape:connector-curvature="0"
         id="path3765-34-4-0"
         d="M 122.13539,590.6244 C 72.808729,578.40544 72.808729,578.40544 72.808729,578.40544 l 8.914465,29.78373 -17.828907,24.43794 57.646823,-11.07344"
         style="opacity:0.78600822999999986;fill:#0005bd;fill-opacity:1;stroke:#000000;stroke-width:0.94316374999999997px;stroke-linecap:butt;stroke-linejoin:miter;stroke-opacity:1;display:inline" />
      <path
         transform="matrix(-0.85313169,0,0,-0.61818778,272.03651,651.85873)"
         d="m 208.57143,74.505043 a 72.14286,30.714285 0 1 1 -144.285717,0 72.14286,30.714285 0 1 1 144.285717,0 z"
         sodipodi:ry="30.714285"
         sodipodi:rx="72.14286"
         sodipodi:cy="74.505043"
         sodipodi:cx="136.42857"
         id="path2985-9-4-2"
         style="fill:#0005bd;fill-opacity:1;fill-rule:evenodd;stroke:#000000;stroke-width:1px;stroke-linecap:butt;stroke-linejoin:miter;stroke-opacity:1;display:inline"
         sodipodi:type="arc" />
      <path
         inkscape:connector-curvature="0"
         id="path3772-6-0-3"
         d="m 216.33119,602.49619 -21.18189,-2.1504"
         style="fill:#0005bd;fill-opacity:1;stroke:#000000;stroke-width:1.87960981999999999;stroke-linecap:butt;stroke-linejoin:miter;stroke-miterlimit:4;stroke-opacity:1;stroke-dasharray:none;display:inline" />
      <path
         sodipodi:nodetypes="ccccc"
         inkscape:connector-curvature="0"
         id="path3777-2-4-7"
         d="m 179.92195,620.68392 -3.35169,-6.12222 0.33517,-8.37778 4.69238,-8.69999 7.37374,-3.86667"
         style="fill:#0005bd;fill-opacity:1;stroke:#000000;stroke-width:1.28786336999999995;stroke-linecap:round;stroke-linejoin:round;stroke-miterlimit:0.80000000999999998;stroke-opacity:1;stroke-dasharray:none;stroke-dashoffset:0;display:inline" />
      <path
         sodipodi:nodetypes="cccc"
         inkscape:connector-curvature="0"
         id="path3803-7-9-5"
         d="m 165.47633,604.54623 -43.77688,-8.33397 5.94502,8.33397 0,0"
         style="fill:#0005bd;fill-opacity:1;stroke:#000000;stroke-width:0.94316374999999997px;stroke-linecap:butt;stroke-linejoin:miter;stroke-opacity:1" />
      <path
         inkscape:connector-curvature="0"
         id="path6179"
         d="m 185.8634,605.64913 13.13862,8.33181"
         style="fill:#0005bd;stroke:#000000;stroke-width:2.50000000000000000;stroke-linecap:butt;stroke-linejoin:miter;stroke-opacity:1;stroke-miterlimit:4;stroke-dasharray:none;fill-opacity:1" />
      <path
         inkscape:connector-curvature="0"
         id="path6181"
         d="m 185.54294,614.30139 13.45907,-8.65226"
         style="fill:#0005bd;stroke:#000000;stroke-width:2.50000000000000000;stroke-linecap:butt;stroke-linejoin:miter;stroke-opacity:1;stroke-miterlimit:4;stroke-dasharray:none;fill-opacity:1" />
      <path
         inkscape:connector-curvature="0"
         id="path6189"
         d="m 114.61806,548.46791 c -3.48697,1.49633 -0.61405,0.10229 -2.65458,1.40948 -0.13474,0.0863 -0.33658,0.10417 -0.45876,0.19687 -0.17276,0.13115 -0.24052,0.28344 -0.36078,0.42517 -0.12027,0.14171 -0.24052,0.28344 -0.36079,0.42517 -0.44582,0.52538 -0.40697,0.31755 -0.26282,0.65348 0.29392,0.68493 0.58784,1.36985 0.88176,2.05479 0.0677,0.15765 0.29235,0.87375 0.39188,0.91323 0.13804,0.0548 0.39835,-0.007 0.55674,0.0314 0.25043,0.0602 0.40428,0.19955 0.6547,0.25975 0.31678,0.0761 0.83742,-0.0466 1.11346,0.0629 0.0976,0.0388 0.0653,0.15221 0.098,0.22831 0.21823,0.0866 0.40427,0.19956 0.65471,0.25975 0.15838,0.038 0.37115,0.021 0.55673,0.0315 0.55673,0.0314 1.11345,0.0629 1.67018,0.0943 0.18558,0.0105 0.41871,-0.0233 0.55674,0.0315 0.0976,0.0388 4e-4,0.18959 0.098,0.22832 0.13801,0.0548 0.41869,-0.0233 0.55672,0.0314 0.0976,0.0387 3e-4,0.18962 0.098,0.22831 0.27605,0.10952 0.8374,-0.0466 1.11346,0.0629 0.0976,0.0388 3.9e-4,0.18958 0.098,0.22832 0.13803,0.0547 0.4187,-0.0233 0.55672,0.0314 0.0733,0.029 0.36862,0.85899 0.3919,0.91325 0.0644,0.15002 0.32484,0.51912 0.29391,0.68492 -0.0389,0.20784 -0.13391,0.43049 -0.26281,0.65348 -0.10151,0.17559 -1.25099,1.53022 -1.44314,1.70068 -0.244,0.21649 -0.57553,0.40556 -0.81953,0.62204 -0.30865,0.27384 -0.48106,0.56689 -0.72157,0.85034 -0.12027,0.14171 -0.24053,0.28345 -0.36079,0.42517 -0.12028,0.14172 -0.30538,0.28741 -0.36079,0.42518 -0.0346,0.0859 0.34065,0.79385 0.39188,0.91323 0.0883,0.20579 0.33197,1.03915 0.48987,1.14155 0.17741,0.11504 0.4773,0.14472 0.65471,0.25975 0.20193,0.13095 0.1827,0.83025 0.39189,0.91324 0.13802,0.0548 0.4187,-0.0233 0.55673,0.0314 0.0976,0.0388 0.0653,0.1522 0.098,0.22831 0.0326,0.0761 0.0653,0.1522 0.098,0.2283 0.20529,0.47838 0.43445,0.64074 0.0311,1.33842 -0.10152,0.17559 -1.25102,1.53021 -1.44316,1.70068 -0.0152,0.60214 -0.89197,0.52567 -1.27828,0.81889 -0.49174,0.37323 -0.59063,0.90231 -1.08237,1.27553 -0.12214,0.0928 -0.3366,0.10407 -0.45875,0.19686 -0.10879,0.0826 -1.04746,1.18876 -1.08235,1.2755 -0.0391,0.0972 0.54662,1.27382 0.58784,1.36986 0.2045,0.47656 0.3939,1.21534 0.6858,1.59816 0.26195,0.34356 0.65618,0.61692 0.94862,0.94468 0.0573,0.0643 0.011,0.18198 0.098,0.22832 1.35152,0.71813 1.33402,0.22457 2.16005,1.23589 0.16186,0.19816 0.19594,0.45662 0.29391,0.68492 0.13063,0.30441 0.26126,0.60882 0.39189,0.91323 0.39189,0.91324 0.78378,1.82648 1.17567,2.73971"
         style="fill:none;stroke:#977800;stroke-width:2.44068813;stroke-linecap:round;stroke-linejoin:round;stroke-miterlimit:4;stroke-opacity:1;stroke-dasharray:none" />
      <path
         inkscape:connector-curvature="0"
         id="path6189-3"
         d="m 130.97268,544.20778 c -2.49623,1.70302 -0.43958,0.11642 -1.90035,1.60417 -0.0965,0.0982 -0.24095,0.11856 -0.32841,0.22406 -0.12368,0.14927 -0.17218,0.32259 -0.25827,0.4839 -0.0861,0.16129 -0.17219,0.32259 -0.25829,0.4839 -0.31915,0.59795 -0.29134,0.36141 -0.18814,0.74374 0.21041,0.77954 0.42082,1.55907 0.63123,2.33862 0.0485,0.17943 0.20928,0.99444 0.28054,1.03938 0.0988,0.0624 0.28516,-0.008 0.39855,0.0357 0.17928,0.0685 0.28942,0.22712 0.46869,0.29563 0.22677,0.0866 0.59948,-0.053 0.79709,0.0716 0.0699,0.0442 0.0468,0.17323 0.0702,0.25985 0.15623,0.0986 0.28941,0.22712 0.46869,0.29563 0.11338,0.0432 0.2657,0.0239 0.39855,0.0358 0.39855,0.0357 0.79709,0.0716 1.19564,0.10732 0.13285,0.0119 0.29975,-0.0265 0.39856,0.0358 0.0699,0.0442 2.8e-4,0.21578 0.0702,0.25986 0.0988,0.0624 0.29973,-0.0265 0.39855,0.0357 0.0699,0.044 2.1e-4,0.21581 0.0701,0.25984 0.19762,0.12465 0.59948,-0.053 0.7971,0.0716 0.0699,0.0442 2.8e-4,0.21577 0.0702,0.25986 0.0988,0.0623 0.29973,-0.0265 0.39854,0.0357 0.0525,0.033 0.26388,0.97764 0.28055,1.03939 0.0461,0.17075 0.23255,0.59083 0.2104,0.77953 -0.0278,0.23655 -0.0959,0.48995 -0.18814,0.74375 -0.0727,0.19984 -0.89555,1.74158 -1.0331,1.93559 -0.17468,0.24639 -0.41201,0.46158 -0.58669,0.70796 -0.22095,0.31167 -0.34437,0.6452 -0.51655,0.9678 -0.0861,0.16128 -0.17219,0.3226 -0.25828,0.4839 -0.0861,0.16129 -0.21861,0.32711 -0.25828,0.48391 -0.0248,0.0978 0.24386,0.9035 0.28054,1.03937 0.0632,0.23422 0.23764,1.18269 0.35068,1.29923 0.12701,0.13093 0.34169,0.16471 0.46869,0.29563 0.14456,0.14904 0.13079,0.94493 0.28055,1.03939 0.0988,0.0624 0.29973,-0.0265 0.39855,0.0357 0.0699,0.0442 0.0467,0.17323 0.0701,0.25985 0.0233,0.0866 0.0468,0.17322 0.0702,0.25983 0.14696,0.54446 0.31101,0.72925 0.0223,1.5233 -0.0727,0.19984 -0.89557,1.74158 -1.03312,1.93559 -0.0109,0.68532 -0.63854,0.59828 -0.91509,0.93201 -0.35203,0.42478 -0.42282,1.02694 -0.77484,1.45171 -0.0874,0.10562 -0.24097,0.11845 -0.32841,0.22406 -0.0779,0.094 -0.74985,1.35296 -0.77483,1.45168 -0.028,0.11063 0.39131,1.44977 0.42082,1.55908 0.1464,0.54238 0.28199,1.38321 0.49095,1.81891 0.18752,0.39102 0.46974,0.70213 0.67909,1.07517 0.041,0.0732 0.008,0.20711 0.0702,0.25986 0.96752,0.81732 0.95499,0.25558 1.54633,1.4066 0.11587,0.22553 0.14026,0.51969 0.2104,0.77953 0.0935,0.34645 0.18703,0.69291 0.28054,1.03937 0.28055,1.03938 0.56109,2.07877 0.84164,3.11814"
         style="fill:none;stroke:#977800;stroke-width:2.20306253;stroke-linecap:round;stroke-linejoin:round;stroke-miterlimit:4;stroke-opacity:1;stroke-dasharray:none" />
      <path
         inkscape:connector-curvature="0"
         id="path6189-4"
         d="m 151.6387,548.81295 c 3.48697,1.49633 0.61405,0.10229 2.65458,1.40948 0.13474,0.0863 0.33658,0.10417 0.45876,0.19687 0.17276,0.13115 0.24052,0.28344 0.36078,0.42517 0.12027,0.14171 0.24052,0.28344 0.36079,0.42517 0.44582,0.52538 0.40697,0.31755 0.26282,0.65348 -0.29392,0.68493 -0.58784,1.36985 -0.88176,2.05479 -0.0677,0.15765 -0.29235,0.87375 -0.39188,0.91323 -0.13804,0.0548 -0.39835,-0.007 -0.55674,0.0314 -0.25043,0.0602 -0.40428,0.19955 -0.6547,0.25975 -0.31678,0.0761 -0.83742,-0.0466 -1.11346,0.0629 -0.0976,0.0388 -0.0653,0.15221 -0.098,0.22831 -0.21823,0.0866 -0.40427,0.19956 -0.65471,0.25975 -0.15838,0.038 -0.37115,0.021 -0.55673,0.0315 -0.55673,0.0314 -1.11345,0.0629 -1.67018,0.0943 -0.18558,0.0105 -0.41871,-0.0233 -0.55674,0.0315 -0.0976,0.0388 -4e-4,0.18959 -0.098,0.22832 -0.13801,0.0548 -0.41869,-0.0233 -0.55672,0.0314 -0.0976,0.0387 -3e-4,0.18962 -0.098,0.22831 -0.27605,0.10952 -0.8374,-0.0466 -1.11346,0.0629 -0.0976,0.0388 -3.9e-4,0.18958 -0.098,0.22832 -0.13803,0.0547 -0.4187,-0.0233 -0.55672,0.0314 -0.0733,0.029 -0.36862,0.85899 -0.3919,0.91325 -0.0644,0.15002 -0.32484,0.51912 -0.29391,0.68492 0.0389,0.20784 0.13391,0.43049 0.26281,0.65348 0.10151,0.17559 1.25099,1.53022 1.44314,1.70068 0.244,0.21649 0.57553,0.40556 0.81953,0.62204 0.30865,0.27384 0.48106,0.56689 0.72157,0.85034 0.12027,0.14171 0.24053,0.28345 0.36079,0.42517 0.12028,0.14172 0.30538,0.28741 0.36079,0.42518 0.0346,0.0859 -0.34065,0.79385 -0.39188,0.91323 -0.0883,0.20579 -0.33197,1.03915 -0.48987,1.14155 -0.17741,0.11504 -0.4773,0.14472 -0.65471,0.25975 -0.20193,0.13095 -0.1827,0.83025 -0.39189,0.91324 -0.13802,0.0548 -0.4187,-0.0233 -0.55673,0.0314 -0.0976,0.0388 -0.0653,0.1522 -0.098,0.22831 -0.0326,0.0761 -0.0653,0.1522 -0.098,0.2283 -0.20529,0.47838 -0.43445,0.64074 -0.0311,1.33842 0.10152,0.17559 1.25102,1.53021 1.44316,1.70068 0.0152,0.60214 0.89197,0.52567 1.27828,0.81889 0.49174,0.37323 0.59063,0.90231 1.08237,1.27553 0.12214,0.0928 0.3366,0.10407 0.45875,0.19686 0.10879,0.0826 1.04746,1.18876 1.08235,1.2755 0.0391,0.0972 -0.54662,1.27382 -0.58784,1.36986 -0.2045,0.47656 -0.3939,1.21534 -0.6858,1.59816 -0.26195,0.34356 -0.65618,0.61692 -0.94862,0.94468 -0.0573,0.0643 -0.011,0.18198 -0.098,0.22832 -1.35152,0.71813 -1.33402,0.22457 -2.16005,1.23589 -0.16186,0.19816 -0.19594,0.45662 -0.29391,0.68492 -0.13063,0.30441 -0.26126,0.60882 -0.39189,0.91323 -0.39189,0.91324 -0.78378,1.82648 -1.17567,2.73971"
         style="fill:none;stroke:#977800;stroke-width:2.44068813;stroke-linecap:round;stroke-linejoin:round;stroke-miterlimit:4;stroke-opacity:1;stroke-dasharray:none" />
      <path
         inkscape:connector-curvature="0"
         id="path6189-5"
         d="m 172.54167,549.5117 c -3.76849,-0.44329 -0.58319,-0.21773 -3.0038,-0.10319 -0.15982,0.008 -0.34365,-0.0777 -0.49579,-0.0584 -0.21516,0.0275 -0.34987,0.12561 -0.52482,0.18842 -0.17493,0.0628 -0.34987,0.1256 -0.52482,0.18841 -0.64851,0.23283 -0.51113,0.0721 -0.55385,0.43516 -0.087,0.74024 -0.17413,1.48045 -0.26121,2.22068 -0.02,0.17041 -0.18269,0.90307 -0.1161,0.98696 0.0923,0.11641 0.3487,0.19271 0.4668,0.30503 0.18698,0.17713 0.25077,0.37466 0.43775,0.55179 0.23655,0.22402 0.74896,0.3775 0.93354,0.61013 0.0652,0.0823 -0.0194,0.16449 -0.0291,0.24674 0.14591,0.18396 0.25077,0.37468 0.43776,0.55181 0.1183,0.11195 0.31116,0.2034 0.46674,0.30511 0.46679,0.30502 0.93353,0.61012 1.40033,0.91514 0.15558,0.10171 0.37446,0.1888 0.46675,0.30512 0.0652,0.0823 -0.0943,0.16449 -0.029,0.24675 0.0922,0.1164 0.37448,0.1887 0.46679,0.30502 0.0653,0.0822 -0.0944,0.16446 -0.0291,0.24675 0.18458,0.23265 0.74894,0.37747 0.93354,0.61012 0.0652,0.0823 -0.0943,0.16448 -0.029,0.24676 0.0923,0.11632 0.37448,0.1887 0.46679,0.30501 0.0491,0.0617 -0.1092,0.92835 -0.1161,0.98699 -0.0191,0.16213 0.0225,0.61197 -0.087,0.74022 -0.13743,0.1607 -0.33086,0.30624 -0.55384,0.43517 -0.17558,0.10151 -1.84768,0.70183 -2.09927,0.75367 -0.31947,0.0659 -0.70112,0.0643 -1.0206,0.13011 -0.40412,0.0833 -0.69977,0.25121 -1.04964,0.37684 -0.17494,0.0628 -0.34988,0.12561 -0.52482,0.18842 -0.17495,0.0628 -0.40806,0.0967 -0.52483,0.18842 -0.0728,0.0572 -0.10092,0.85794 -0.11609,0.98695 -0.0262,0.2224 -0.23086,1.06619 -0.14512,1.23372 0.0963,0.18823 0.34141,0.36359 0.43776,0.5518 0.10964,0.21425 -0.25597,0.81067 -0.1161,0.98697 0.0922,0.1164 0.37448,0.1887 0.46679,0.30502 0.0652,0.0823 -0.0194,0.16448 -0.0291,0.24675 -0.01,0.0823 -0.0194,0.16448 -0.029,0.24673 -0.0609,0.517 0.0568,0.77206 -0.64092,1.1754 -0.17559,0.1015 -1.84772,0.70181 -2.09929,0.75366 -0.31364,0.51423 -1.03529,0.0104 -1.51638,0.0718 -0.61239,0.0781 -0.9621,0.48721 -1.57448,0.56526 -0.15215,0.0195 -0.34364,-0.0777 -0.49578,-0.0583 -0.13548,0.0173 -1.50093,0.5075 -1.57444,0.56525 -0.0824,0.0647 -0.16194,1.37666 -0.17415,1.48046 -0.0606,0.51504 -0.26507,1.24978 -0.20317,1.72718 0.0556,0.42845 0.2608,0.86206 0.35067,1.29203 0.0176,0.0843 -0.0813,0.16317 -0.0291,0.24676 0.81288,1.29673 1.044,0.86028 1.25518,2.14889 0.0414,0.25249 -0.0581,0.49347 -0.087,0.74022 -0.0387,0.32897 -0.0774,0.65798 -0.11609,0.98696 -0.1161,0.98696 -0.2322,1.97393 -0.34829,2.96089"
         style="fill:none;stroke:#977800;stroke-width:2.44068813;stroke-linecap:round;stroke-linejoin:round;stroke-miterlimit:4;stroke-opacity:1;stroke-dasharray:none" />
      <path
         inkscape:connector-curvature="0"
         id="path6189-36"
         d="m 181.02171,582.89446 c -4.47809,-1.40186 -0.78858,-0.0958 -3.4091,-1.3205 -0.17304,-0.0809 -0.43225,-0.0976 -0.58916,-0.18444 -0.22186,-0.12287 -0.30888,-0.26554 -0.46333,-0.39832 -0.15445,-0.13277 -0.30888,-0.26555 -0.46334,-0.39833 -0.57253,-0.49221 -0.52264,-0.2975 -0.33752,-0.61222 0.37746,-0.64169 0.75493,-1.28337 1.13239,-1.92506 0.0869,-0.1477 0.37545,-0.81859 0.50327,-0.85558 0.17727,-0.0513 0.51157,0.007 0.71498,-0.0294 0.32161,-0.0564 0.51919,-0.18695 0.84079,-0.24335 0.40682,-0.0713 1.07544,0.0437 1.42994,-0.0589 0.12535,-0.0364 0.0839,-0.1426 0.12586,-0.21389 0.28026,-0.0811 0.51918,-0.18696 0.8408,-0.24335 0.2034,-0.0356 0.47665,-0.0197 0.71497,-0.0295 0.71498,-0.0294 1.42994,-0.0589 2.14491,-0.0883 0.23833,-0.01 0.53772,0.0218 0.71498,-0.0295 0.12535,-0.0364 5.2e-4,-0.17762 0.12586,-0.21391 0.17724,-0.0513 0.5377,0.0218 0.71496,-0.0294 0.12534,-0.0363 3.8e-4,-0.17765 0.12585,-0.2139 0.35452,-0.1026 1.07542,0.0437 1.42995,-0.0589 0.12534,-0.0363 5e-4,-0.17761 0.12585,-0.2139 0.17727,-0.0513 0.53771,0.0218 0.71496,-0.0294 0.0941,-0.0272 0.4734,-0.80476 0.5033,-0.85559 0.0827,-0.14055 0.41717,-0.48635 0.37745,-0.64168 -0.05,-0.19472 -0.17198,-0.40331 -0.33751,-0.61222 -0.13037,-0.16451 -1.60657,-1.43361 -1.85334,-1.59331 -0.31335,-0.20282 -0.73911,-0.37996 -1.05247,-0.58277 -0.39638,-0.25655 -0.61779,-0.5311 -0.92666,-0.79665 -0.15446,-0.13277 -0.3089,-0.26556 -0.46334,-0.39833 -0.15447,-0.13277 -0.39218,-0.26926 -0.46334,-0.39834 -0.0444,-0.0805 0.43747,-0.74373 0.50327,-0.85557 0.11339,-0.1928 0.42632,-0.97354 0.6291,-1.06948 0.22784,-0.10778 0.61297,-0.13558 0.84081,-0.24335 0.25932,-0.12268 0.23463,-0.77783 0.50328,-0.85558 0.17725,-0.0513 0.5377,0.0218 0.71497,-0.0294 0.12534,-0.0363 0.0839,-0.14259 0.12585,-0.2139 0.0419,-0.0713 0.0839,-0.14259 0.12586,-0.21388 0.26364,-0.44818 0.55793,-0.60029 0.0399,-1.25392 -0.13038,-0.16451 -1.60661,-1.4336 -1.85336,-1.59331 -0.0195,-0.56412 -1.1455,-0.49248 -1.64161,-0.76719 -0.63151,-0.34967 -0.75851,-0.84534 -1.39002,-1.195 -0.15686,-0.0869 -0.43227,-0.0975 -0.58914,-0.18443 -0.13972,-0.0774 -1.34519,-1.11371 -1.39,-1.19497 -0.0502,-0.0911 0.70199,-1.1934 0.75493,-1.28338 0.26262,-0.44647 0.50586,-1.13861 0.88073,-1.49726 0.3364,-0.32187 0.84269,-0.57797 1.21825,-0.88503 0.0736,-0.0602 0.0141,-0.1705 0.12585,-0.21391 1.73567,-0.67279 1.7132,-0.21039 2.77402,-1.15786 0.20786,-0.18565 0.25163,-0.42779 0.37745,-0.64168 0.16776,-0.28519 0.33552,-0.57038 0.50328,-0.85557 0.50328,-0.85559 1.00655,-1.71117 1.50983,-2.56674"
         style="fill:none;stroke:#977800;stroke-width:2.67715311;stroke-linecap:round;stroke-linejoin:round;stroke-miterlimit:4;stroke-opacity:1;stroke-dasharray:none" />
    </g>
    <path
       style="fill:#0005bd;fill-opacity:0.76255709;stroke:none"
       d=""
       id="path6305"
       inkscape:connector-curvature="0" />
    <g
       id="g6478"
       inkscape:export-filename="/home/christian/coding/Java/LudumDare31/src/assets/bad_3.png"
       inkscape:export-xdpi="64"
       inkscape:export-ydpi="64">
      <path
         transform="matrix(1.2243955,0,0,0.96513724,-115.95996,6.932304)"
         d="m 516.57205,621.67181 a 45.504486,56.399925 0 1 1 -91.00897,0 45.504486,56.399925 0 1 1 91.00897,0 z"
         sodipodi:ry="56.399925"
         sodipodi:rx="45.504486"
         sodipodi:cy="621.67181"
         sodipodi:cx="471.06757"
         id="path6398"
         style="fill:#000000;fill-opacity:1;stroke:#ffffff;stroke-width:1;stroke-linecap:round;stroke-linejoin:round;stroke-miterlimit:4;stroke-opacity:1;stroke-dasharray:none;stroke-dashoffset:0;display:inline"
         sodipodi:type="arc" />
      <path
         transform="matrix(2.7271525,0,0,0.99140777,-850.94167,-16.391514)"
         sodipodi:open="true"
         sodipodi:end="6.2547637"
         sodipodi:start="0"
         d="m 495.42209,628.40137 a 14.099981,37.493134 0 1 1 -0.006,-1.06547"
         sodipodi:ry="37.493134"
         sodipodi:rx="14.099981"
         sodipodi:cy="628.40137"
         sodipodi:cx="481.32211"
         id="path6400"
         style="fill:#ffffff;fill-opacity:1;stroke:#ffffff;stroke-width:1;stroke-linecap:round;stroke-linejoin:round;stroke-miterlimit:4;stroke-opacity:1;stroke-dasharray:none;stroke-dashoffset:0;display:inline"
         sodipodi:type="arc" />
      <rect
         y="567.83551"
         x="458.89029"
         height="76.908989"
         width="7.0499907"
         id="rect6404"
         style="fill:#787878;fill-opacity:1;stroke:#ffffff;stroke-width:0;stroke-linecap:round;stroke-linejoin:round;stroke-miterlimit:4;stroke-opacity:1;stroke-dasharray:none;stroke-dashoffset:0;display:inline" />
      <path
         transform="matrix(0.88073498,0,0,1.2727154,89.672957,-294.71946)"
         sodipodi:open="true"
         sodipodi:end="6.2547637"
         sodipodi:start="0"
         d="m 451.84032,708.19446 a 29.802235,19.868156 0 1 1 -0.012,-0.56461"
         sodipodi:ry="19.868156"
         sodipodi:rx="29.802235"
         sodipodi:cy="708.19446"
         sodipodi:cx="422.03809"
         id="path6402"
         style="fill:#787878;fill-opacity:1;stroke:#ffffff;stroke-width:0;stroke-linecap:round;stroke-linejoin:round;stroke-miterlimit:4;stroke-opacity:1;stroke-dasharray:none;stroke-dashoffset:0;display:inline"
         sodipodi:type="arc" />
      <rect
         transform="matrix(0.00774386,-0.99997002,0.99997283,0.00737098,0,0)"
         y="427.04041"
         x="-606.39496"
         height="78.83033"
         width="7.0500007"
         id="rect6404-7"
         style="fill:#787878;fill-opacity:1;stroke:#ffffff;stroke-width:0;stroke-linecap:round;stroke-linejoin:round;stroke-miterlimit:4;stroke-opacity:1;stroke-dasharray:none;stroke-dashoffset:0;display:inline" />
      <rect
         transform="matrix(0.70728794,0.70692558,-0.69947619,0.71465591,0,0)"
         y="63.761166"
         x="750.0968"
         height="78.158119"
         width="7.1636691"
         id="rect6404-3"
         style="fill:#787878;fill-opacity:1;stroke:#ffffff;stroke-width:0;stroke-linecap:round;stroke-linejoin:round;stroke-miterlimit:4;stroke-opacity:1;stroke-dasharray:none;stroke-dashoffset:0;display:inline" />
      <rect
         transform="matrix(0.72853587,-0.68500766,0.68500766,0.72853587,0,0)"
         y="719.78802"
         x="-82.185684"
         height="76.908989"
         width="7.0499907"
         id="rect6404-78"
         style="fill:#787878;fill-opacity:1;stroke:#ffffff;stroke-width:0;stroke-linecap:round;stroke-linejoin:round;stroke-miterlimit:4;stroke-opacity:1;stroke-dasharray:none;stroke-dashoffset:0;display:inline" />
    </g>
    <g
       id="g6616"
       inkscape:export-filename="/home/christian/coding/Java/LudumDare31/src/assets/bad_4.png"
       inkscape:export-xdpi="31.716692"
       inkscape:export-ydpi="31.716692"
       transform="translate(-15.408479,8.1574303)">
      <path
         inkscape:connector-curvature="0"
         id="path6590"
         d="m 586.43105,656.28088 8.33181,-23.7136 c 0,0 6.40908,-1.92273 12.17726,-3.20454 5.76817,-1.28182 10.25453,-0.64091 12.81816,-6.40909 2.56363,-5.76817 0.64091,-1.92272 4.48636,-7.6909 3.84545,-5.76817 2.56363,-11.53634 16.02271,-12.17725 13.45907,-0.64091 11.53634,-1.28182 17.30452,0 5.76817,1.28181 8.33181,1.92272 14.09998,-0.64091 5.76817,-2.56363 5.76817,-3.84545 8.33181,-3.84545 2.56363,0 1.28181,-0.64091 4.48635,0 3.20455,0.64091 3.84545,0 9.61363,1.28182 5.76817,1.28181 -0.64091,-3.84545 6.40908,1.92272 7.04999,5.76817 8.33181,3.84545 8.33181,8.33181 0,4.48636 0,6.40908 0,9.61362 0,3.20454 -0.64091,5.12727 1.92272,8.33181 2.56364,3.20454 4.48636,7.04999 4.48636,7.04999 0,0 1.28182,5.12727 1.28182,7.6909 0,2.56363 0.64091,7.04999 0.64091,10.25453 0,3.20454 0,8.33181 0,8.33181 0,0 8.3318,0.64091 -1.92273,4.48636 -10.25453,3.84545 -7.04999,3.84545 -16.02271,3.84545 -8.97271,0 -9.61362,0 -16.66361,-1.92273 -7.04999,-1.92272 -7.6909,-4.48636 -12.17726,-7.6909 -4.48635,-3.20454 -1.92272,-5.12726 -7.04999,-5.12726 -5.12726,0 6.40909,-3.84545 -8.97271,0 -15.3818,3.84544 -19.22725,3.84544 -19.22725,3.84544 0,0 -10.89544,0 -13.45907,0 -2.56364,0 3.20454,-0.6409 -5.76818,0 -8.97271,0.64091 -17.30452,0.64091 -21.14997,0.64091 -3.84545,0 -8.33181,-3.20454 -8.33181,-3.20454 z"
         style="fill:#9d783d;fill-opacity:1;stroke:#000000;stroke-width:1px;stroke-linecap:butt;stroke-linejoin:miter;stroke-opacity:1" />
      <path
         inkscape:connector-curvature="0"
         id="path6592"
         d="m 640.90825,623.59456 c 11.53635,-5.76817 10.89544,-5.12727 10.89544,-5.12727 l 8.97272,2.56364 c 0,0 1.28182,0 3.84545,0 2.56363,0 1.28182,0 6.40908,-0.64091 5.12727,-0.64091 4.48636,-0.64091 9.61363,-0.64091 5.12726,0 5.12726,-2.56363 8.97271,0 3.84545,2.56363 5.76818,5.12727 5.76818,5.12727 l 1.28181,1.28181"
         style="fill:none;stroke:#000000;stroke-width:1px;stroke-linecap:butt;stroke-linejoin:miter;stroke-opacity:1" />
      <path
         inkscape:connector-curvature="0"
         id="path6594"
         d="m 612.06738,651.15362 10.89544,-5.12727 c 0,0 1.92273,0 4.48636,0 2.56363,0 3.84545,-0.64091 9.61362,-3.20454 5.76818,-2.56363 5.12727,-4.48636 9.61363,-4.48636 4.48636,0 4.48636,0 8.33181,0 3.84544,0 3.84544,-1.92272 7.69089,0"
         style="fill:none;stroke:#000000;stroke-width:1px;stroke-linecap:butt;stroke-linejoin:miter;stroke-opacity:1" />
      <path
         inkscape:connector-curvature="0"
         id="path6596"
         d="m 676.15821,633.20818 11.53635,5.76818 c 0,0 1.92272,1.92272 5.12726,5.76817 3.20454,3.84545 4.48636,6.40909 7.04999,6.40909 2.56364,0 4.48636,0 4.48636,0"
         style="fill:none;stroke:#000000;stroke-width:1px;stroke-linecap:butt;stroke-linejoin:miter;stroke-opacity:1" />
      <path
         inkscape:connector-curvature="0"
         id="path6604"
         d="m 617.83556,605.64913 c 0,-8.44307 0.75531,-1.053 -0.64091,-3.84545 -0.0955,-0.19108 0.0955,-0.44983 0,-0.64091 -0.13512,-0.27023 -0.54537,-0.35428 -0.64091,-0.64091 -0.13512,-0.40534 0,-0.85454 0,-1.28181 0,-0.21364 0.0955,-0.44983 0,-0.64091 -0.13512,-0.27023 -0.42727,-0.42727 -0.64091,-0.64091 -0.73329,-0.7333 -0.8938,-0.75869 -1.28181,-1.92272 -0.12054,-0.3616 0,-1.50158 0,-1.92273 0,-1.06818 0,-2.13636 0,-3.20454 0,-0.52394 -0.10828,-4.16153 0,-4.48636 0.0955,-0.28662 0.42727,-0.42727 0.6409,-0.64091 0.7333,-0.73329 0.89381,-0.75869 1.28182,-1.92272 0.13943,-0.4183 0,-3.07917 0,-3.84545 0,-2.77727 0,-5.55454 0,-8.33181 0,-2.77727 0,-5.55454 0,-8.3318 0,-1.06819 0,-2.13637 0,-3.20455 0,-0.21363 0.0676,-0.43823 0,-0.6409 -1.54746,-4.64237 0.18478,1.01046 -1.28182,-1.92273 -0.17525,-0.3505 0.10905,-1.48656 0,-1.92272 -0.16385,-0.65541 -0.47705,-1.26732 -0.6409,-1.92273 -0.10363,-0.41451 0,-0.85454 0,-1.28182 0,-0.85454 0,-1.70908 0,-2.56363 0,-0.64091 -0.20268,-1.3147 0,-1.92272 0.0955,-0.28663 0.42727,-0.42728 0.6409,-0.64091 0.7333,-0.7333 0.75869,-0.89381 1.92273,-1.28182 0.84276,-0.28092 1.28181,0.53232 1.28181,-1.28181"
         style="fill:none;stroke:#9d7f3c;stroke-width:3;stroke-linecap:butt;stroke-linejoin:round;stroke-miterlimit:4;stroke-opacity:1;stroke-dasharray:none" />
      <path
         inkscape:connector-curvature="0"
         id="path6606"
         d="m 633.85826,588.34461 c 0,-0.85455 0.14049,-1.72072 0,-2.56364 -0.15707,-0.94241 -0.97969,-1.65725 -1.28181,-2.56363 -0.0676,-0.20267 0,-0.42727 0,-0.64091 -0.42728,-0.85454 -0.79027,-1.74437 -1.28182,-2.56363 -0.15544,-0.25907 -0.54537,-0.35429 -0.64091,-0.64091 -0.13511,-0.40534 0,-0.85454 0,-1.28182 0,-1.06818 0,-2.13636 0,-3.20454 0,-0.6409 0,-1.28181 0,-1.92272 0,-0.21364 0.0955,-0.44983 0,-0.64091 -0.13511,-0.27023 -0.50579,-0.37068 -0.64091,-0.64091 -0.0718,-0.14364 0,-2.41133 0,-2.56363 0,-1.28182 0,-2.56363 0,-3.84545 0,-4.05909 0,-8.11817 0,-12.17726 0,-2.13636 0,-4.27272 0,-6.40908 0,-0.41319 -0.0918,-2.42593 0,-2.56363 0.33518,-0.50277 0.85455,-0.85455 1.28182,-1.28182 1.06818,-1.06818 2.13636,-2.13636 3.20454,-3.20454 0.21364,-0.21364 0.47332,-0.38952 0.64091,-0.64091 0.26498,-0.39747 0.37592,-0.88434 0.64091,-1.28182 0.16759,-0.25138 0.42727,-0.42727 0.64091,-0.6409 0.21363,-0.21364 0.37067,-0.5058 0.6409,-0.64091 0.19109,-0.0955 0.43824,0.0676 0.64091,0 0.45319,-0.15107 0.83828,-0.46349 1.28182,-0.64091 0.62726,-0.2509 1.31847,-0.33878 1.92272,-0.64091 0.27023,-0.13511 0.42728,-0.42727 0.64091,-0.64091 0.7333,-0.73329 0.89381,-0.75869 1.28182,-1.92272 0.0676,-0.20267 -0.0955,-0.44983 0,-0.64091 0.24479,-0.48958 1.77806,-1.48873 1.92272,-1.92272 0.13512,-0.40535 0,-0.85455 0,-1.28182 0,-0.21364 -0.0955,-0.44983 0,-0.64091 0.13512,-0.27023 0.5058,-0.37068 0.64091,-0.64091 0.0955,-0.19108 0,-0.42727 0,-0.64091 0,-0.42727 0,-0.85454 0,-1.28181"
         style="fill:none;stroke:#9d7f3c;stroke-width:3;stroke-linecap:butt;stroke-linejoin:round;stroke-miterlimit:4;stroke-opacity:1;stroke-dasharray:none" />
      <path
         inkscape:connector-curvature="0"
         id="path6608"
         d="m 655.00824,593.47187 c -0.70858,-0.94476 -2.11619,-2.50311 -2.56364,-3.84545 -0.13511,-0.40534 0.19108,-0.89965 0,-1.28181 -0.13511,-0.27023 -0.54537,-0.35429 -0.64091,-0.64091 -0.13511,-0.40535 0.19109,-0.89965 0,-1.28182 -0.27023,-0.54046 -0.97093,-0.76367 -1.28181,-1.28181 -0.34758,-0.57931 -0.39001,-1.29547 -0.64091,-1.92273 -0.17742,-0.44354 -0.52505,-0.81837 -0.64091,-1.28182 -0.10363,-0.41451 0.10363,-0.8673 0,-1.28181 -0.23982,-0.95929 -1.57811,-2.51532 -1.92272,-3.20454 -0.30213,-0.60426 -0.47706,-1.26732 -0.64091,-1.92273 -0.0518,-0.20726 0,-0.42727 0,-0.64091 0,-1.06818 0.20949,-2.1571 0,-3.20454 -0.0937,-0.46843 -0.4635,-0.83828 -0.64091,-1.28181 -0.2509,-0.62726 -0.50842,-1.26027 -0.64091,-1.92273 -0.0838,-0.41897 0,-0.85454 0,-1.28182 0,-1.49545 0,-2.9909 0,-4.48635 0,-1.28182 0,-2.56364 0,-3.84545 0,-0.42727 -0.10363,-0.8673 0,-1.28182 0.33128,-1.32512 1.66494,-2.30585 2.56363,-3.20454 0.21364,-0.21364 0.5058,-0.37068 0.64091,-0.64091 0.0955,-0.19108 -0.0676,-0.43823 0,-0.64091 0.15107,-0.45319 0.48985,-0.82862 0.64091,-1.28181 0.0676,-0.20268 -0.1185,-0.46316 0,-0.64091 0.33518,-0.50277 0.85455,-0.85455 1.28182,-1.28182 0.21363,-0.21363 0.54536,-0.35428 0.64091,-0.64091 0.13511,-0.40534 -0.13512,-0.87647 0,-1.28181 0.0955,-0.28663 0.50579,-0.37068 0.6409,-0.64091 0.0955,-0.19108 -0.0955,-0.44983 0,-0.64091 0.70855,-1.41708 0.39778,-0.19889 1.28182,-0.64091 0.27023,-0.13511 0.42727,-0.42727 0.64091,-0.64091"
         style="fill:none;stroke:#9d7f3c;stroke-width:3;stroke-linecap:butt;stroke-linejoin:round;stroke-miterlimit:4;stroke-opacity:1;stroke-dasharray:none" />
      <path
         inkscape:connector-curvature="0"
         id="path6610"
         d="m 667.18549,538.35376 c 0,0.26707 0.11825,3.66808 0,3.84545 -0.33518,0.50277 -0.94663,0.77905 -1.28181,1.28182 -0.11851,0.17776 0,0.42727 0,0.64091 0,0.64091 0.15544,1.30095 0,1.92272 -0.0733,0.29311 -0.5058,0.37068 -0.64091,0.64091 -0.0718,0.14365 0,2.41133 0,2.56363 0,0.92012 0.19037,2.44307 0,3.20454 -0.0733,0.29311 -0.54541,0.35429 -0.64091,0.64091 -0.92496,2.77489 1.22522,-0.23556 -0.64091,2.56364 -0.38895,0.58342 -1.63869,1.35466 -1.92272,1.92272 -0.0955,0.19108 0.0955,0.44983 0,0.64091 -0.31534,0.63067 -2.2483,1.93296 -2.56364,2.56363 -0.0955,0.19108 0.0955,0.44983 0,0.64091 -0.27023,0.54046 -1.01158,0.74136 -1.28181,1.28182 -0.0955,0.19108 0.0955,0.44982 0,0.64091 -1.4666,2.93318 0.26564,-2.71965 -1.28182,1.92272 -0.12053,0.3616 0,1.50158 0,1.92272 0,0.42728 0,0.85455 0,1.28182 0,0.42727 -0.13512,0.87647 0,1.28182 0.0955,0.28662 0.50579,0.37068 0.64091,0.64091 0.0955,0.19108 -0.0955,0.44982 0,0.6409 0.20412,0.40824 2.70093,2.70094 3.20454,3.20455 0.92553,0.92552 2.36379,2.83412 3.84545,3.20454 0.41451,0.10363 0.85454,0 1.28182,0 0.42727,0 0.85454,0 1.28181,0 2.35,0 4.7,0 7.04999,0 10e-6,8.44307 -0.75532,1.05299 0.64091,3.84545 0.25636,0.51272 -0.25636,1.40999 0,1.92272 0.13512,0.27023 0.54537,0.35429 0.64091,0.64091 0.12153,0.36459 0,2.60091 0,3.20454 0,0.1523 0.0718,2.41999 0,2.56363 -0.13512,0.27023 -0.42727,0.42728 -0.64091,0.64091 -0.21364,0.21364 -0.37068,0.50579 -0.64091,0.64091 -0.38216,0.19108 -0.9263,-0.23701 -1.28181,0 -0.50277,0.33518 -0.85455,0.85454 -1.28182,1.28182 -0.21364,0.21363 -0.37068,0.50579 -0.64091,0.6409 -0.19108,0.0956 -0.44982,-0.0955 -0.64091,0 -1.35351,0.67676 -0.27173,1.82529 -0.6409,2.56364 -0.13512,0.27023 -0.42728,0.42727 -0.64091,0.64091"
         style="fill:none;stroke:#9d7f3c;stroke-width:3;stroke-linecap:butt;stroke-linejoin:round;stroke-miterlimit:4;stroke-opacity:1;stroke-dasharray:none" />
      <path
         inkscape:connector-curvature="0"
         id="path6612"
         d="m 697.94909,590.90824 c -0.42727,-0.85454 -0.79026,-1.74438 -1.28182,-2.56363 -0.31088,-0.51815 -0.94663,-0.77905 -1.28181,-1.28182 -0.26499,-0.39747 -0.37593,-0.88434 -0.64091,-1.28182 -0.16759,-0.25138 -0.42728,-0.42727 -0.64091,-0.6409 -0.42727,-0.64091 -0.88551,-1.26222 -1.28182,-1.92273 -0.24577,-0.40963 -0.37592,-0.88434 -0.64091,-1.28182 -0.16759,-0.25138 -0.5287,-0.36039 -0.6409,-0.6409 -0.32714,-0.81785 -0.24699,-1.77579 -0.64091,-2.56364 -2.0867,-4.1734 -0.64232,1.2776 -1.92273,-2.56363 -0.0676,-0.20267 0.0676,-0.43824 0,-0.64091 -0.15106,-0.45319 -0.46349,-0.83828 -0.64091,-1.28181 -0.2509,-0.62726 -0.29332,-1.34343 -0.6409,-1.92273 -0.31089,-0.51814 -1.01159,-0.74135 -1.28182,-1.28182 -0.19108,-0.38216 0.10363,-0.8673 0,-1.28181 -0.11586,-0.46344 -0.52505,-0.81838 -0.64091,-1.28182 -0.12209,-0.48838 0,-3.82325 0,-4.48636 0,-0.28863 -0.0975,-1.72767 0,-1.92272 0.27023,-0.54046 0.94664,-0.77905 1.28182,-1.28182 0.26498,-0.39747 0.37592,-0.88434 0.64091,-1.28181 0.16759,-0.25139 0.50579,-0.37068 0.6409,-0.64091 0.0956,-0.19108 0,-0.42727 0,-0.64091 0.21364,-0.42727 0.37593,-0.88434 0.64091,-1.28182 0.97773,-1.46659 0.50733,0.40076 1.28182,-1.92272 0.13409,-0.40227 0,-2.04768 0,-2.56364 0,-1.92272 0,-3.84544 0,-5.76817 0,-1.92272 0,-3.84545 0,-5.76817 0,-0.54263 -0.11485,-2.21908 0,-2.56364 0.79197,-2.37591 0.64091,0.78124 0.64091,-1.28181"
         style="fill:none;stroke:#9d7f3c;stroke-width:3;stroke-linecap:butt;stroke-linejoin:round;stroke-miterlimit:4;stroke-opacity:1;stroke-dasharray:none" />
      <path
         inkscape:connector-curvature="0"
         id="path6614"
         d="m 708.20362,595.3946 c 0.85454,-0.64091 1.92272,-2.77727 2.56363,-1.92273 0.64091,0.85455 -2.56363,2.99091 -2.56363,1.92273 0,-1.36794 1.80484,-2.06635 2.56363,-3.20454 0.11851,-0.17776 0,-0.42728 0,-0.64091 0,-0.21364 0,-0.42727 0,-0.64091 0,-1.49545 0,-2.99091 0,-4.48636 0,-2.13636 0,-4.27272 0,-6.40908 0,-0.74452 0.14526,-2.62353 0,-3.20454 -0.11586,-0.46344 -0.42727,-0.85455 -0.64091,-1.28182 -0.42727,-0.85454 -0.85454,-1.70909 -1.28181,-2.56363 -0.21364,-0.42727 -0.52505,-0.81838 -0.64091,-1.28182 -0.14305,-0.57219 0,-2.46267 0,-3.20454 0,-0.45717 -0.11828,-2.73141 0,-3.20454 1.61887,-6.47549 -0.23143,0.46286 1.28182,-2.56363 0.0955,-0.19109 -0.0518,-0.43365 0,-0.64091 0.5887,-2.35483 0.6409,-1.35607 0.6409,-3.20454 0,-0.42727 0,-0.85455 0,-1.28182 0,-0.21364 -0.0955,-0.44983 0,-0.64091 0.13512,-0.27023 0.5058,-0.37068 0.64091,-0.64091 0.0955,-0.19108 0,-0.42727 0,-0.6409 0,-0.42728 0,-0.85455 0,-1.28182"
         style="fill:none;stroke:#9d7f3c;stroke-width:3;stroke-linecap:butt;stroke-linejoin:round;stroke-miterlimit:4;stroke-opacity:1;stroke-dasharray:none" />
    </g>
    <g
       id="g6707"
       inkscape:export-filename="/home/christian/coding/Java/LudumDare31/src/assets/bad_2.png"
       inkscape:export-xdpi="64"
       inkscape:export-ydpi="64">
      <rect
         inkscape:export-ydpi="64"
         inkscape:export-xdpi="64"
         inkscape:export-filename="/home/christian/coding/Java/LudumDare31/res/path6359.png"
         y="616.34167"
         x="283.01581"
         height="71.152298"
         width="42.952335"
         id="rect6244"
         style="fill:#9aff01;fill-opacity:1;stroke:#000000;stroke-width:0.98852021000000001;stroke-linecap:round;stroke-linejoin:round;stroke-miterlimit:4;stroke-opacity:1;stroke-dasharray:none;stroke-dashoffset:0" />
      <path
         sodipodi:nodetypes="ccsccsssssccccccssssssccc"
         inkscape:connector-curvature="0"
         id="path6705"
         d="m 326.54276,615.90366 -11.53635,-0.96136 c 0,0 -1.60227,-3.525 -3.20454,-3.525 -1.60228,0 -5.12727,-3.20454 -5.12727,-3.20454 l 0,-10.89544 c 0,0 -0.32045,-3.84545 0.64091,-5.12726 0.96136,-1.28182 2.88408,-3.525 4.80681,-7.04999 1.92272,-3.525 4.48636,-5.12727 6.08863,-8.33181 1.60227,-3.20454 2.88409,-4.48636 1.28181,-6.72954 -1.60227,-2.24318 -2.56363,-1.92272 -3.84544,-4.80681 -1.28182,-2.88409 3.52499,3.525 -2.24318,-5.76818 -1.67587,0.45314 -4.46631,-4.65679 -2.24318,-17.30452 l -8.65226,-0.32045 -0.96137,13.13862 -0.96136,4.48636 -7.04999,7.37044 c 0,0 -0.32045,0.96136 -1.28182,2.56363 -0.96136,1.60227 -1.60227,2.24318 -2.88408,4.48636 -1.28182,2.24318 -0.96137,0.96136 -1.92273,4.1659 -0.96136,3.20455 -1.28181,3.20455 -1.60227,5.12727 -0.32045,1.92273 -1.28182,1.92273 -1.60227,4.1659 -0.32045,2.24318 -0.32045,3.20455 -0.32045,4.48636 0,1.28182 0,3.20454 0,3.20454 l -0.64091,2.24318 -0.32046,18.58634"
         style="fill:#41ff01;stroke:#000000;stroke-width:1px;stroke-linecap:butt;stroke-linejoin:miter;stroke-opacity:1;fill-opacity:1;opacity:1" />
    </g>
    <g
       id="g6723"
       transform="matrix(0.517349,0,0,0.50978238,54.408817,363.82221)"
       inkscape:export-filename="/home/christian/coding/Java/LudumDare31/src/assets/bad_5.png"
       inkscape:export-xdpi="64"
       inkscape:export-ydpi="64">
      <path
         inkscape:connector-curvature="0"
         id="path6713"
         d="m 83.518803,717.49559 29.335197,3.67712 c 0,0 17.25599,-19.30492 25.88399,-23.90133 8.62799,-4.59641 21.56999,-15.6278 21.56999,-15.6278 0,0 16.3932,26.65919 12.0792,34.93273 -4.314,8.27353 -22.43279,19.30491 -25.88399,24.82061 -3.4512,5.51569 48.31679,-11.95067 52.63078,-13.78923 4.31401,-1.83857 9.4908,-0.91929 9.4908,-0.91929 0,0 -7.7652,12.86996 -10.3536,20.22421 -2.58839,7.35426 18.1188,15.6278 26.7468,12.86995 l 17.25599,13.78923 5.17681,15.6278 c 0,0 -2.58841,5.51569 -16.39321,8.27353 -13.80479,2.75785 -27.60958,0 -36.23758,3.67713 -8.62801,3.67713 -12.942,12.86995 -5.1768,19.30493 7.76519,6.43497 20.70719,8.27354 25.02119,8.27354 4.314,0 6.0396,13.78922 -11.21639,16.54707 -17.25601,2.75784 -23.2956,-1.83856 -40.5516,-4.59641 -17.25599,-2.75785 -16.39319,-8.27354 -26.74679,-5.51569 -10.3536,2.75784 -12.942,0.91928 -12.942,16.54708 0,15.62779 4.314,30.3363 0.8628,22.98204 -3.45119,-7.35425 -23.29559,-55.15691 -23.29559,-55.15691 0,0 -0.862801,-7.35426 -14.667598,15.62779 -13.804796,22.98204 -17.255995,22.98204 -19.844394,27.57846 -2.5884,4.59641 -19.844396,0 -21.569995,-19.30492 -1.7256,-19.30493 13.804797,-34.93272 18.981595,-40.44841 5.176799,-5.5157 10.353597,-11.03139 -4.313998,-26.65919 -14.667597,-15.62779 -28.472393,-31.25559 -26.746794,-41.36769 1.725599,-10.1121 -3.451199,-32.17487 8.627998,-37.69056 12.079197,-5.51569 8.627998,-14.70851 22.432794,-9.19282 13.804797,5.51569 6.039598,34.01343 12.079197,46.88338 6.039598,12.86996 7.765198,-17.46635 7.765198,-17.46635 z"
         style="fill:#d2d2d2;fill-opacity:1;stroke:#000000;stroke-width:0.98258138px;stroke-linecap:butt;stroke-linejoin:miter;stroke-opacity:1" />
      <path
         inkscape:connector-curvature="0"
         id="path6715"
         d="m 58.914774,732.40964 c 0,0 23.56591,34.44248 37.161627,29.91058 13.595719,-4.53191 29.004199,-19.94039 29.004199,-19.94039 l 10.87657,-11.78295 5.43829,19.94038 c 0,0 24.47229,11.78296 33.5361,11.78296 9.06381,0 0.90638,9.97019 -8.15743,18.12762 -9.06381,8.15743 -26.28505,33.5361 -26.28505,33.5361 l 25.37867,-15.40848 0,0"
         style="fill:none;stroke:#000000;stroke-width:1px;stroke-linecap:butt;stroke-linejoin:miter;stroke-opacity:1" />
      <path
         inkscape:connector-curvature="0"
         id="path6717"
         d="m 83.387065,781.35422 -2.719143,30.81696 35.348868,-18.12762"
         style="fill:none;stroke:#000000;stroke-width:1px;stroke-linecap:butt;stroke-linejoin:miter;stroke-opacity:1" />
      <path
         inkscape:connector-curvature="0"
         id="path6719"
         d="m 130.51888,829.39242 -3.62552,-56.19563"
         style="fill:none;stroke:#000000;stroke-width:1px;stroke-linecap:butt;stroke-linejoin:miter;stroke-opacity:1" />
      <path
         inkscape:connector-curvature="0"
         id="path6721"
         d="M 237.47186,778.63508 192.1528,775.00955"
         style="fill:none;stroke:#000000;stroke-width:1px;stroke-linecap:butt;stroke-linejoin:miter;stroke-opacity:1" />
    </g>
  </g>
</svg>
